<?xml version="1.0" encoding="UTF-8" standalone="no"?>
<svg width="79px" height="44px" viewBox="0 0 79 44" version="1.1" xmlns="http://www.w3.org/2000/svg" xmlns:xlink="http://www.w3.org/1999/xlink">
    <!-- Generator: Sketch 41 (35326) - http://www.bohemiancoding.com/sketch -->
    <title>Group 2</title>
    <desc>Created with Sketch.</desc>
    <defs></defs>
    <g id="Page-1" stroke="none" stroke-width="1" fill="none" fill-rule="evenodd">
        <g id="Artboard" transform="translate(-10.000000, -20.000000)">
            <g id="Group-2" transform="translate(11.000000, 21.000000)">
                <g id="Group-3" transform="translate(18.000000, 0.000000)">
                    <circle id="Oval" stroke="#22ADC2" stroke-width="1.6" cx="19" cy="19" r="19"></circle>
                    <path d="M30,30 C30,23.9248678 25.0751322,19 19,19 C12.9248678,19 8,23.9248678 8,30" id="Oval" stroke="#22ADC2" stroke-width="1.6" stroke-linecap="round" transform="translate(19.000000, 24.500000) rotate(180.000000) translate(-19.000000, -24.500000) "></path>
                    <circle id="Oval-2" fill="#22ADC2" cx="14" cy="12" r="2"></circle>
                    <circle id="Oval-2-Copy" fill="#22ADC2" cx="24" cy="14" r="2"></circle>
                </g>
                <g id="Group-3-Copy" transform="translate(52.000000, 12.000000)">
                    <circle id="Oval" stroke="#22ADC2" stroke-width="1.6" cx="12.5" cy="12.5" r="12.5"></circle>
                    <path d="M19.7368421,19.7368421 C19.7368421,15.7400446 16.4967975,12.5 12.5,12.5 C8.50320247,12.5 5.26315789,15.7400446 5.26315789,19.7368421" id="Oval" stroke="#22ADC2" stroke-width="1.6" stroke-linecap="round" transform="translate(12.500000, 16.118421) rotate(180.000000) translate(-12.500000, -16.118421) "></path>
                    <circle id="Oval-2" fill="#22ADC2" cx="9.21052632" cy="7.89473684" r="1.31578947"></circle>
                    <ellipse id="Oval-2-Copy" fill="#22ADC2" cx="15.7894737" cy="9.21052632" rx="1.31578947" ry="1.31578947"></ellipse>
                </g>
                <g id="Group-3-Copy-2" transform="translate(0.000000, 24.000000)">
                    <circle id="Oval" stroke="#22ADC2" stroke-width="1.6" cx="9" cy="9" r="9"></circle>
                    <path d="M14.2105263,14.2105263 C14.2105263,11.3328321 11.8776942,9 9,9 C6.12230578,9 3.78947368,11.3328321 3.78947368,14.2105263" id="Oval" stroke="#22ADC2" stroke-width="1.6" stroke-linecap="round" transform="translate(9.000000, 11.605263) rotate(180.000000) translate(-9.000000, -11.605263) "></path>
                    <ellipse id="Oval-2" fill="#22ADC2" cx="6.63157895" cy="5.68421053" rx="0.947368421" ry="0.947368421"></ellipse>
                    <ellipse id="Oval-2-Copy" fill="#22ADC2" cx="11.3684211" cy="6.63157895" rx="0.947368421" ry="0.947368421"></ellipse>
                </g>
            </g>
        </g>
    </g>
</svg>