<?xml version="1.0" encoding="UTF-8"?>
<svg width="246px" height="261px" viewBox="0 0 246 261" version="1.1" xmlns="http://www.w3.org/2000/svg" xmlns:xlink="http://www.w3.org/1999/xlink">
    <!-- Generator: Sketch 42 (36781) - http://www.bohemiancoding.com/sketch -->
    <title>Shape</title>
    <desc>Created with Sketch.</desc>
    <defs></defs>
    <g id="Page-1" stroke="none" stroke-width="1" fill="none" fill-rule="evenodd">
        <path d="M245.73,57.22 C245.737257,47.8995022 244.444812,38.6235187 241.89,29.66 C238.613538,18.5990936 230.339927,9.71467898 219.54,5.66 C198.076641,-1.84193739 174.703359,-1.84193739 153.24,5.66 C142.431129,9.70131413 134.152495,18.5911233 130.89,29.66 C125.735599,47.6820298 125.735599,66.7879702 130.89,84.81 C134.153896,95.8780777 142.432026,104.767345 153.24,108.81 C163.89096,112.538892 175.095162,114.442322 186.38,114.44 C197.670451,114.441482 208.880538,112.541582 219.54,108.82 C230.338145,104.762659 238.610757,95.8793175 241.89,84.82 C244.447473,75.843382 245.739934,66.5538225 245.73,57.22 L245.73,57.22 Z M209.89,57.22 C209.908457,61.7722018 209.23407,66.3007061 207.89,70.65 C206.018864,76.5478032 201.074247,80.9515432 195,82.13 C189.31618,83.2312106 183.47382,83.2312106 177.79,82.13 C171.729675,80.9434002 166.799092,76.5457501 164.93,70.66 C162.199892,61.9113764 162.199892,52.5386236 164.93,43.79 C166.799092,37.9042499 171.729675,33.5065998 177.79,32.32 C183.474198,31.2227421 189.315802,31.2227421 195,32.32 C201.057991,33.5136762 205.983786,37.9143083 207.85,43.8 C209.194526,48.1491901 209.868923,52.6777646 209.85,57.23 L209.89,57.22 Z M114.85,207.23 C119.97834,189.204326 119.97834,170.105674 114.85,152.08 C111.578408,141.019679 103.307881,132.134601 92.51,128.08 C71.0474473,120.573314 47.6725527,120.573314 26.21,128.08 C15.3993348,132.11863 7.11968952,141.009524 3.86,152.08 C-1.29814634,170.101505 -1.29814634,189.208495 3.86,207.23 C7.12109257,218.299676 15.4002324,227.190028 26.21,231.23 C47.673359,238.731937 71.046641,238.731937 92.51,231.23 C103.309927,227.175321 111.583538,218.290906 114.86,207.23 L114.85,207.23 Z M82.86,179.66 C82.8774554,184.215407 82.2031028,188.747057 80.86,193.1 C78.9878517,198.98187 74.0578474,203.375171 68,204.56 C62.3161566,205.660963 56.4738434,205.660963 50.79,204.56 C44.7159034,203.390408 39.7670656,198.993999 37.89,193.1 C35.1630588,184.350894 35.1630588,174.979106 37.89,166.23 C39.7621483,160.34813 44.6921526,155.954829 50.75,154.77 C56.434104,153.671757 62.275896,153.671757 67.96,154.77 C74.0216606,155.95153 78.9561476,160.345408 80.83,166.23 C82.1721018,170.579742 82.8464431,175.107943 82.83,179.66 L82.86,179.66 Z M82.86,57 L118.7,57 C118.68461,47.7500684 117.392413,38.546536 114.86,29.65 C111.585623,18.5912684 103.316096,9.70726427 92.52,5.65 C71.0532044,-1.85189479 47.6767956,-1.85189479 26.21,5.65 C15.402026,9.69265486 7.12389574,18.5819223 3.86,29.65 C-1.29493596,47.6719548 -1.29493596,66.7780452 3.86,84.8 C7.12389574,95.8680777 15.402026,104.757345 26.21,108.8 C36.8616307,112.52629 48.0653876,114.429644 59.35,114.43 C70.6441531,114.426727 81.8572877,112.523502 92.52,108.8 C103.319036,104.74399 111.592147,95.8601117 114.87,84.8 C115.31,83.28 115.71,81.71 116.07,80.16 L82.29,64.41 C81.954199,66.5257194 81.466267,68.6144695 80.83,70.66 C78.9641482,76.5363831 74.0478851,80.9315147 68,82.13 C62.3161566,83.2309627 56.4738434,83.2309627 50.79,82.13 C44.7144216,80.9566187 39.7658962,76.5566507 37.89,70.66 C35.162426,61.9109904 35.162426,52.5390096 37.89,43.79 C39.7621483,37.9081299 44.6921526,33.514829 50.75,32.33 C56.4339621,31.2302751 62.2760379,31.2302751 67.96,32.33 C74.0241389,33.5132994 78.9592044,37.911528 80.83,43.8 C82.1502712,48.0792843 82.8243658,52.5316791 82.83,57.01 L82.86,57 Z M130.83,152.09 C128.278797,161.05746 126.989733,170.336703 127,179.66 L127,260.46 L162.84,260.46 L162.84,179.66 C162.818109,175.107552 163.492572,170.578529 164.84,166.23 C166.712148,160.34813 171.642153,155.954829 177.7,154.77 C183.38408,153.67151 189.22592,153.67151 194.91,154.77 C200.966851,155.956837 205.895972,160.34935 207.77,166.23 C210.493782,174.979587 210.493782,184.350413 207.77,193.1 C205.913254,198.957475 201.023517,203.345602 195,204.56 C189.31592,205.65849 183.47408,205.65849 177.79,204.56 C176.628154,204.34607 175.491942,204.010904 174.4,203.56 L186.55,236.94 C197.78748,236.922425 208.942356,235.019335 219.55,231.31 C230.350819,227.256653 238.624931,218.371701 241.9,207.31 C247.020416,189.283221 247.020416,170.186779 241.9,152.16 C238.626324,141.097503 230.351712,132.212014 219.55,128.16 C198.087447,120.653314 174.712553,120.653314 153.25,128.16 C142.438437,132.197286 134.158285,141.088724 130.9,152.16 L130.83,152.09 Z" id="Shape" fill="#FFFFFF" fill-rule="nonzero"></path>
    </g>
</svg>