<?xml version="1.0" encoding="UTF-8"?>
<svg width="218px" height="35px" viewBox="0 0 218 35" version="1.1" xmlns="http://www.w3.org/2000/svg" xmlns:xlink="http://www.w3.org/1999/xlink">
    <!-- Generator: Sketch 43.2 (39069) - http://www.bohemiancoding.com/sketch -->
    <title>powerpack-logo</title>
    <desc>Created with Sketch.</desc>
    <defs></defs>
    <g id="Identity" stroke="none" stroke-width="1" fill="none" fill-rule="evenodd">
        <g id="powerpack-logo">
            <path d="M14.596,5.898 C15.7000055,6.63000366 16.5879966,7.61399382 17.26,8.85 C17.9320034,10.0860062 18.268,11.4359927 18.268,12.9 C18.268,14.3400072 17.9320034,15.6839938 17.26,16.932 C16.5879966,18.1800062 15.7000055,19.1699963 14.596,19.902 C13.4919945,20.6340037 12.3280061,21 11.104,21 L4.84,21 L4.84,27.804 C4.84,28.4520032 4.64800192,28.979998 4.264,29.388 C3.87999808,29.796002 3.37600312,30 2.752,30 C2.151997,30 1.66000192,29.7900021 1.276,29.37 C0.89199808,28.9499979 0.7,28.4280031 0.7,27.804 L0.7,6.996 C0.7,6.37199688 0.9099979,5.8500021 1.33,5.43 C1.7500021,5.0099979 2.27199688,4.8 2.896,4.8 L11.104,4.8 C12.3280061,4.8 13.4919945,5.16599634 14.596,5.898 Z M12.454,16.32 C12.8980022,15.9359981 13.2579986,15.4380031 13.534,14.826 C13.8100014,14.2139969 13.948,13.5720034 13.948,12.9 C13.948,12.2279966 13.8100014,11.5860031 13.534,10.974 C13.2579986,10.3619969 12.8980022,9.87000186 12.454,9.498 C12.0099978,9.12599814 11.5600023,8.94 11.104,8.94 L4.84,8.94 L4.84,16.896 L11.104,16.896 C11.5600023,16.896 12.0099978,16.7040019 12.454,16.32 Z M38.896,25.554 C38.0319957,27.0780076 36.8500075,28.2599958 35.35,29.1 C33.8499925,29.9400042 32.200009,30.36 30.4,30.36 C28.5759909,30.36 26.9200074,29.9400042 25.432,29.1 C23.9439926,28.2599958 22.7680043,27.0780076 21.904,25.554 C21.0399957,24.0299924 20.608,22.3080096 20.608,20.388 C20.608,18.4679904 21.0399957,16.7460076 21.904,15.222 C22.7680043,13.6979924 23.9439926,12.5100043 25.432,11.658 C26.9200074,10.8059957 28.5759909,10.38 30.4,10.38 C32.200009,10.38 33.8499925,10.8059957 35.35,11.658 C36.8500075,12.5100043 38.0319957,13.6979924 38.896,15.222 C39.7600043,16.7460076 40.192,18.4679904 40.192,20.388 C40.192,22.3080096 39.7600043,24.0299924 38.896,25.554 Z M35.134,17.238 C34.6419975,16.3139954 33.9820041,15.6000025 33.154,15.096 C32.3259959,14.5919975 31.408005,14.34 30.4,14.34 C29.391995,14.34 28.4740041,14.5919975 27.646,15.096 C26.8179959,15.6000025 26.1580025,16.3139954 25.666,17.238 C25.1739975,18.1620046 24.928,19.2119941 24.928,20.388 C24.928,21.5640059 25.1739975,22.6079954 25.666,23.52 C26.1580025,24.4320046 26.8179959,25.1399975 27.646,25.644 C28.4740041,26.1480025 29.391995,26.4 30.4,26.4 C31.408005,26.4 32.3259959,26.1480025 33.154,25.644 C33.9820041,25.1399975 34.6419975,24.4320046 35.134,23.52 C35.6260025,22.6079954 35.872,21.5640059 35.872,20.388 C35.872,19.2119941 35.6260025,18.1620046 35.134,17.238 Z M67.426,11.37 C67.822002,11.7900021 68.02,12.3239968 68.02,12.972 C68.02,13.1880011 67.9720005,13.4639983 67.876,13.8 L62.368,28.632 C62.2239993,29.0640022 61.9660019,29.4059987 61.594,29.658 C61.2219981,29.9100013 60.8200022,30.036 60.388,30.036 L60.1,30 C59.2839959,29.9519998 58.672002,29.4960043 58.264,28.632 L55.204,19.776 L52.288,28.632 C51.879998,29.4960043 51.2680041,29.9519998 50.452,30 L50.164,30.036 C49.7319978,30.036 49.3300019,29.9100013 48.958,29.658 C48.5859981,29.4059987 48.3280007,29.0640022 48.184,28.632 L42.676,13.8 C42.5799995,13.5359987 42.532,13.2600014 42.532,12.972 C42.532,12.371997 42.729998,11.8500022 43.126,11.406 C43.522002,10.9619978 44.0439968,10.74 44.692,10.74 C45.1720024,10.74 45.5859983,10.8539989 45.934,11.082 C46.2820017,11.3100011 46.5279993,11.6519977 46.672,12.108 L50.56,22.656 L53.404,14.952 C53.7880019,14.0639956 54.4479953,13.62 55.384,13.62 C55.8880025,13.62 56.2779986,13.7279989 56.554,13.944 C56.8300014,14.1600011 57.063999,14.4959977 57.256,14.952 L60.028,22.476 L63.88,12.108 C64.0240007,11.6519977 64.2759982,11.3100011 64.636,11.082 C64.9960018,10.8539989 65.4399974,10.74 65.968,10.74 C66.5440029,10.74 67.029998,10.9499979 67.426,11.37 Z M88.036,21.324 C87.6039978,21.6840018 87.1000029,21.864 86.524,21.864 L74.644,21.864 C74.9320014,23.2800071 75.5919948,24.389996 76.624,25.194 C77.6560052,25.998004 78.8199935,26.4 80.116,26.4 C81.1000049,26.4 81.8679972,26.3100009 82.42,26.13 C82.9720028,25.9499991 83.4099984,25.758001 83.734,25.554 C84.0580016,25.349999 84.2799994,25.2120004 84.4,25.14 C84.8320022,24.9239989 85.2399981,24.816 85.624,24.816 C86.1280025,24.816 86.5599982,24.9959982 86.92,25.356 C87.2800018,25.7160018 87.46,26.1359976 87.46,26.616 C87.46,27.2640032 87.1240034,27.8519974 86.452,28.38 C85.7799966,28.9320028 84.8800056,29.3999981 83.752,29.784 C82.6239944,30.1680019 81.4840058,30.36 80.332,30.36 C78.3159899,30.36 76.5580075,29.9400042 75.058,29.1 C73.5579925,28.2599958 72.4000041,27.1020074 71.584,25.626 C70.7679959,24.1499926 70.36,22.4880092 70.36,20.64 C70.36,18.5759897 70.7919957,16.7640078 71.656,15.204 C72.5200043,13.6439922 73.6599929,12.4500041 75.076,11.622 C76.4920071,10.7939959 78.003992,10.38 79.612,10.38 C81.1960079,10.38 82.689993,10.8119957 84.094,11.676 C85.498007,12.5400043 86.6199958,13.7039927 87.46,15.168 C88.3000042,16.6320073 88.72,18.2159915 88.72,19.92 C88.6959999,20.4960029 88.4680022,20.9639982 88.036,21.324 Z M74.68,18.264 L84.112,18.264 L84.112,18.012 C84.0159995,17.003995 83.5240044,16.1400036 82.636,15.42 C81.7479956,14.6999964 80.7400056,14.34 79.612,14.34 C76.8279861,14.34 75.1840025,15.6479869 74.68,18.264 Z M104.146,10.992 C104.638002,11.400002 104.884,11.8799972 104.884,12.432 C104.884,13.1760037 104.692002,13.7339981 104.308,14.106 C103.923998,14.4780019 103.468003,14.664 102.94,14.664 C102.579998,14.664 102.172002,14.5800008 101.716,14.412 C101.644,14.3879999 101.482001,14.3400004 101.23,14.268 C100.977999,14.1959996 100.708001,14.16 100.42,14.16 C99.7959969,14.16 99.1960029,14.3519981 98.62,14.736 C98.0439971,15.1200019 97.5700019,15.7019961 97.198,16.482 C96.8259981,17.2620039 96.64,18.1919946 96.64,19.272 L96.64,27.804 C96.64,28.4280031 96.436002,28.9499979 96.028,29.37 C95.619998,29.7900021 95.1040031,30 94.48,30 C93.8559969,30 93.340002,29.7900021 92.932,29.37 C92.523998,28.9499979 92.32,28.4280031 92.32,27.804 L92.32,12.936 C92.32,12.3119969 92.523998,11.7900021 92.932,11.37 C93.340002,10.9499979 93.8559969,10.74 94.48,10.74 C95.1040031,10.74 95.619998,10.9499979 96.028,11.37 C96.436002,11.7900021 96.64,12.3119969 96.64,12.936 L96.64,13.404 C97.1920028,12.4199951 97.9839948,11.6700026 99.016,11.154 C100.048005,10.6379974 101.151994,10.38 102.328,10.38 C103.048004,10.38 103.653998,10.583998 104.146,10.992 Z M152.44,5.898 C153.544006,6.63000366 154.431997,7.61399382 155.104,8.85 C155.776003,10.0860062 156.112,11.4359927 156.112,12.9 C156.112,14.3400072 155.776003,15.6839938 155.104,16.932 C154.431997,18.1800062 153.544006,19.1699963 152.44,19.902 C151.335994,20.6340037 150.172006,21 148.948,21 L142.684,21 L142.684,27.804 C142.684,28.4520032 142.492002,28.979998 142.108,29.388 C141.723998,29.796002 141.220003,30 140.596,30 C139.995997,30 139.504002,29.7900021 139.12,29.37 C138.735998,28.9499979 138.544,28.4280031 138.544,27.804 L138.544,6.996 C138.544,6.37199688 138.753998,5.8500021 139.174,5.43 C139.594002,5.0099979 140.115997,4.8 140.74,4.8 L148.948,4.8 C150.172006,4.8 151.335994,5.16599634 152.44,5.898 Z M150.298,16.32 C150.742002,15.9359981 151.101999,15.4380031 151.378,14.826 C151.654001,14.2139969 151.792,13.5720034 151.792,12.9 C151.792,12.2279966 151.654001,11.5860031 151.378,10.974 C151.101999,10.3619969 150.742002,9.87000186 150.298,9.498 C149.853998,9.12599814 149.404002,8.94 148.948,8.94 L142.684,8.94 L142.684,16.896 L148.948,16.896 C149.404002,16.896 149.853998,16.7040019 150.298,16.32 Z M176.848,10.992 C177.256002,11.400002 177.46,11.9279968 177.46,12.576 L177.46,27.804 C177.46,28.4280031 177.256002,28.9499979 176.848,29.37 C176.439998,29.7900021 175.924003,30 175.3,30 C174.675997,30 174.166002,29.796002 173.77,29.388 C173.373998,28.979998 173.164,28.4640031 173.14,27.84 C172.539997,28.5360035 171.730005,29.1299975 170.71,29.622 C169.689995,30.1140025 168.616006,30.36 167.488,30.36 C165.831992,30.36 164.332007,29.9340043 162.988,29.082 C161.643993,28.2299957 160.582004,27.0480076 159.802,25.536 C159.021996,24.0239924 158.632,22.3080096 158.632,20.388 C158.632,18.4679904 159.015996,16.7460076 159.784,15.222 C160.552004,13.6979924 161.601993,12.5100043 162.934,11.658 C164.266007,10.8059957 165.735992,10.38 167.344,10.38 C168.496006,10.38 169.575995,10.5899979 170.584,11.01 C171.592005,11.4300021 172.443997,11.9639968 173.14,12.612 L173.14,12.576 C173.14,11.9519969 173.343998,11.4300021 173.752,11.01 C174.160002,10.5899979 174.675997,10.38 175.3,10.38 C175.924003,10.38 176.439998,10.583998 176.848,10.992 Z M171.844,24.69 C172.828005,23.5499943 173.32,22.1160086 173.32,20.388 C173.32,18.6599914 172.828005,17.2200058 171.844,16.068 C170.859995,14.9159942 169.588008,14.34 168.028,14.34 C166.491992,14.34 165.232005,14.9159942 164.248,16.068 C163.263995,17.2200058 162.772,18.6599914 162.772,20.388 C162.772,22.1160086 163.257995,23.5499943 164.23,24.69 C165.202005,25.8300057 166.467992,26.4 168.028,26.4 C169.588008,26.4 170.859995,25.8300057 171.844,24.69 Z M195.46,11.334 C196.708006,11.9700032 197.332,12.8159947 197.332,13.872 C197.332,14.4000026 197.176002,14.861998 196.864,15.258 C196.551998,15.654002 196.144003,15.852 195.64,15.852 C195.255998,15.852 194.944001,15.7980005 194.704,15.69 C194.463999,15.5819995 194.230001,15.4380009 194.002,15.258 C193.773999,15.0779991 193.552001,14.9280006 193.336,14.808 C193.095999,14.6879994 192.742002,14.5800005 192.274,14.484 C191.805998,14.3879995 191.428001,14.34 191.14,14.34 C189.339991,14.34 187.930005,14.8979944 186.91,16.014 C185.889995,17.1300056 185.38,18.587991 185.38,20.388 C185.38,22.1160086 185.895995,23.5499943 186.928,24.69 C187.960005,25.8300057 189.279992,26.4 190.888,26.4 C192.064006,26.4 192.939997,26.2560014 193.516,25.968 C193.660001,25.8959996 193.857999,25.7700009 194.11,25.59 C194.362001,25.4099991 194.595999,25.2720005 194.812,25.176 C195.028001,25.0799995 195.291998,25.032 195.604,25.032 C196.204003,25.032 196.677998,25.2239981 197.026,25.608 C197.374002,25.9920019 197.548,26.483997 197.548,27.084 C197.548,27.6600029 197.212003,28.1999975 196.54,28.704 C195.867997,29.2080025 194.980006,29.6099985 193.876,29.91 C192.771994,30.2100015 191.596006,30.36 190.348,30.36 C188.499991,30.36 186.874007,29.9280043 185.47,29.064 C184.065993,28.1999957 182.980004,27.0060076 182.212,25.482 C181.443996,23.9579924 181.06,22.2600094 181.06,20.388 C181.06,18.4439903 181.461996,16.7160076 182.266,15.204 C183.070004,13.6919924 184.191993,12.5100043 185.632,11.658 C187.072007,10.8059957 188.703991,10.38 190.528,10.38 C192.56801,10.38 194.211994,10.6979968 195.46,11.334 Z M217.384,27.84 C217.384,28.440003 217.150002,28.943998 216.682,29.352 C216.213998,29.760002 215.716003,29.964 215.188,29.964 C214.563997,29.964 214.036002,29.7240024 213.604,29.244 L207.124,22.404 L205.36,24.024 L205.36,27.804 C205.36,28.4280031 205.156002,28.9499979 204.748,29.37 C204.339998,29.7900021 203.824003,30 203.2,30 C202.575997,30 202.060002,29.7900021 201.652,29.37 C201.243998,28.9499979 201.04,28.4280031 201.04,27.804 L201.04,5.556 C201.04,4.93199688 201.243998,4.4100021 201.652,3.99 C202.060002,3.5699979 202.575997,3.36 203.2,3.36 C203.824003,3.36 204.339998,3.5699979 204.748,3.99 C205.156002,4.4100021 205.36,4.93199688 205.36,5.556 L205.36,18.876 L213.064,11.424 C213.520002,10.9679977 214.047997,10.74 214.648,10.74 C215.176003,10.74 215.649998,10.9619978 216.07,11.406 C216.490002,11.8500022 216.7,12.2999977 216.7,12.756 C216.7,13.3320029 216.412003,13.8719975 215.836,14.376 L210.4,19.38 L216.7,26.22 C217.156002,26.7000024 217.384,27.239997 217.384,27.84 Z" id="Power-Pack" fill="#FFFFFF"></path>
            <path d="M109.78043,34.4775604 C109.630189,34.4775604 109.478777,34.4342441 109.346486,34.3456604 C109.035468,34.1376642 108.915665,33.7376714 109.062004,33.3930923 L115.088041,19.1513998 L111.625469,19.1513998 C111.310158,19.1513998 111.026066,18.9621349 110.905092,18.6710183 C110.783729,18.3802918 110.849679,18.0450784 111.071723,17.8210825 L128.529748,0.23076784 C128.793548,-0.0345931939 129.20876,-0.0763485331 129.519388,0.132818399 C129.830017,0.341595095 129.948649,0.74158783 129.80231,1.0857767 L123.778614,15.2490316 L127.239235,15.2490316 C127.554156,15.2490316 127.837858,15.4382965 127.959612,15.7286327 C128.080975,16.0193591 128.015806,16.3541823 127.794542,16.5781782 L110.335737,34.24615 C110.184715,34.3987326 109.983353,34.4775604 109.78043,34.4775604 Z" id="Shape-Copy" fill="#5DF35C" fill-rule="nonzero"></path>
        </g>
    </g>
</svg>