<?xml version="1.0" encoding="UTF-8"?>
<svg width="451px" height="100px" viewBox="0 0 451 100" version="1.1" xmlns="http://www.w3.org/2000/svg" xmlns:xlink="http://www.w3.org/1999/xlink">
    <!-- Generator: Sketch 42 (36781) - http://www.bohemiancoding.com/sketch -->
    <title>power-pack-logo</title>
    <desc>Created with Sketch.</desc>
    <defs></defs>
    <g id="Page-1" stroke="none" stroke-width="1" fill="none" fill-rule="evenodd">
        <g id="power-pack-logo" fill-rule="nonzero">
            <g id="Page-1">
                <g id="power-pack-logo">
                    <g id="Identity">
                        <g id="Power-Pack-logo">
                            <path d="M222.248882,99.3503533 C221.815948,99.3503533 221.37964,99.2255334 220.998433,98.9702709 C220.102203,98.3709101 219.75698,97.2182932 220.17867,96.2253558 L237.543265,55.186571 L227.565538,55.186571 C226.656939,55.186571 225.8383,54.6411864 225.489703,53.8023062 C225.139983,52.9645504 225.330024,51.9986012 225.969867,51.3531358 L276.276816,0.66497937 C277.036981,-0.0996835622 278.233454,-0.220005524 279.128559,0.382728788 C280.023665,0.984338595 280.365514,2.13695552 279.943825,3.12876832 L262.585976,43.9415278 L272.55808,43.9415278 C273.465555,43.9415278 274.28307,44.4869124 274.633915,45.3235436 C274.983636,46.1612993 274.795844,47.126124 274.15825,47.7715895 L223.849052,98.6835223 C223.413868,99.1232035 222.833624,99.3503533 222.248882,99.3503533 Z" id="Shape-Copy-3" fill="#5DF35C"></path>
                            <path d="M41.116,42.376 C41.116,45.4960156 40.4920062,48.3159874 39.244,50.836 C37.9959938,53.3560126 36.3880098,55.3599926 34.42,56.848 C30.4359801,59.9200154 26.3080214,61.456 22.036,61.456 L13.036,61.456 L13.036,69.592 C13.036,70.6960055 13.0000004,71.5239972 12.928,72.076 C12.8559996,72.6280028 12.6280019,73.2639964 12.244,73.984 C11.5719966,75.2800065 9.70001536,75.928 6.628,75.928 C3.2679832,75.928 1.30000288,75.0400089 0.724,73.264 C0.43599856,72.4479959 0.292,71.2000084 0.292,69.52 L0.292,29.56 C0.292,28.4559945 0.32799964,27.6280028 0.4,27.076 C0.47200036,26.5239972 0.69999808,25.8880036 1.084,25.168 C1.75600336,23.8719935 3.62798464,23.224 6.7,23.224 L22.108,23.224 C26.3320211,23.224 30.4359801,24.7599846 34.42,27.832 C36.3880098,29.3200074 37.9959938,31.3359873 39.244,33.88 C40.4920062,36.4240127 41.116,39.2559844 41.116,42.376 Z M26.356,47.128 C27.748007,46.0719947 28.444,44.4880106 28.444,42.376 C28.444,40.2639894 27.748007,38.6680054 26.356,37.588 C24.963993,36.5079946 23.5240074,35.968 22.036,35.968 L13.036,35.968 L13.036,48.712 L22.108,48.712 C23.5480072,48.712 24.963993,48.1840053 26.356,47.128 Z M50.764,42.808 C54.7960202,39.0639813 59.4039741,37.192 64.588,37.192 C69.7720259,37.192 74.3559801,39.0519814 78.34,42.772 C82.3240199,46.4920186 84.316,51.2319712 84.316,56.992 C84.316,60.9760199 83.2840103,64.5159845 81.22,67.612 C79.1559897,70.7080155 76.6480148,72.9879927 73.696,74.452 C70.7439852,75.9160073 67.6840158,76.648 64.516,76.648 C61.3479842,76.648 58.2760149,75.8680078 55.3,74.308 C52.3239851,72.7479922 49.8160102,70.4440152 47.776,67.396 C45.7359898,64.3479848 44.716,60.9040192 44.716,57.064 C44.716,51.3039712 46.7319798,46.5520187 50.764,42.808 Z M64.444,63.976 C66.0280079,63.976 67.6119921,63.376006 69.196,62.176 C70.7800079,60.975994 71.572,59.2000118 71.572,56.848 C71.572,54.4959882 70.8280074,52.7440058 69.34,51.592 C67.8519926,50.4399942 66.2440086,49.864 64.516,49.864 C62.7879914,49.864 61.1800074,50.463994 59.692,51.664 C58.2039926,52.864006 57.46,54.6279884 57.46,56.956 C57.46,59.2840116 58.2279923,61.0359941 59.764,62.212 C61.3000077,63.3880059 62.8599921,63.976 64.444,63.976 Z M136.084,38.344 C139.156015,39.6880067 140.692,41.3439902 140.692,43.312 C140.692,44.1280041 140.308004,45.435991 139.54,47.236 C138.771996,49.036009 138.124003,50.6079933 137.596,51.952 L129.676,71.248 C128.955996,73.3600106 127.756008,74.8479957 126.076,75.712 C125.355996,76.0480017 124.444006,76.216 123.34,76.216 C122.235994,76.216 121.168005,75.7960042 120.136,74.956 C119.103995,74.1159958 118.420002,73.2640043 118.084,72.4 L117.508,71.176 C117.123998,70.2159952 115.708012,66.4720326 113.26,59.944 C112.779998,61.0960058 112.072005,62.9799869 111.136,65.596 C110.199995,68.2120131 109.600001,69.8439968 109.336,70.492 C109.071999,71.1400032 108.904,71.5719989 108.832,71.788 C108.76,72.0040011 108.556002,72.3999971 108.22,72.976 C107.883998,73.5520029 107.500002,74.0559978 107.068,74.488 C105.915994,75.6400058 104.596007,76.216 103.108,76.216 C101.619993,76.216 100.372005,75.7960042 99.364,74.956 C98.355995,74.1159958 97.6840017,73.2640043 97.348,72.4 L86.476,45.904 C85.9959976,44.4639928 85.756,43.5280022 85.756,43.096 C85.756,41.1759904 87.1239863,39.6640055 89.86,38.56 C91.3960077,37.9359969 92.6439952,37.624 93.604,37.624 C94.5640048,37.624 95.343997,37.827998 95.944,38.236 C96.544003,38.644002 96.9639988,39.051998 97.204,39.46 C97.4440012,39.868002 97.6359993,40.2879978 97.78,40.72 C98.5960041,42.6400096 100.299987,47.1519645 102.892,54.256 L107.14,42.592 C107.428001,41.6319952 107.955996,40.7920036 108.724,40.072 C110.116007,38.679993 111.531993,37.984 112.972,37.984 C114.412007,37.984 115.647995,38.3679962 116.68,39.136 C117.712005,39.9040038 118.419998,40.6719962 118.804,41.44 L119.38,42.664 C121.780012,49.3840336 123.195998,53.2239952 123.628,54.184 L128.02,42.232 C129.172006,39.1599846 130.899988,37.624 133.204,37.624 C134.116005,37.624 135.075995,37.8639976 136.084,38.344 Z M177.592,59.044 C176.127993,60.4600071 174.508009,61.168 172.732,61.168 L155.668,61.168 C155.668,62.5120067 156.459992,63.6399954 158.044,64.552 C159.628008,65.4640046 161.211992,65.92 162.796,65.92 C165.580014,65.92 167.763992,65.6320029 169.348,65.056 L170.14,64.768 C171.292006,64.2399974 172.251996,63.976 173.02,63.976 C174.556008,63.976 175.875994,65.0559892 176.98,67.216 C177.604003,68.5120065 177.916,69.6159954 177.916,70.528 C177.916,74.8000214 172.804051,76.936 162.58,76.936 C159.027982,76.936 155.872014,76.3240061 153.112,75.1 C150.351986,73.8759939 148.204008,72.2560101 146.668,70.24 C143.643985,66.3519806 142.132,62.008024 142.132,57.208 C142.132,51.1599698 144.08798,46.3240181 148,42.7 C151.91202,39.0759819 156.795971,37.264 162.652,37.264 C169.324033,37.264 174.219984,39.6159765 177.34,44.32 C178.972008,46.8160125 179.788,49.5399852 179.788,52.492 C179.788,55.4440148 179.056007,57.6279929 177.592,59.044 Z M164.596,54.616 C166.420009,54.616 167.332,53.8480077 167.332,52.312 C167.332,51.2079945 166.912004,50.3200034 166.072,49.648 C165.231996,48.9759966 164.032008,48.64 162.472,48.64 C160.911992,48.64 159.364008,49.2759936 157.828,50.548 C156.291992,51.8200064 155.524,53.1759928 155.524,54.616 L164.596,54.616 Z M212.512,39.964 C213.112003,40.6600035 213.412,41.7759923 213.412,43.312 C213.412,44.8480077 212.956005,46.5279909 212.044,48.352 C211.131995,50.1760091 209.812009,51.088 208.084,51.088 C207.219996,51.088 206.392004,50.8960019 205.6,50.512 C204.807996,50.1279981 203.764006,49.936 202.468,49.936 C201.171994,49.936 199.960006,50.3919954 198.832,51.304 C197.703994,52.2160046 197.14,53.3199935 197.14,54.616 L197.14,69.736 C197.14,70.8400055 197.104,71.6679972 197.032,72.22 C196.96,72.7720028 196.732002,73.4079964 196.348,74.128 C195.627996,75.3760062 193.756015,76 190.732,76 C188.427988,76 186.772005,75.5920041 185.764,74.776 C184.995996,74.1039966 184.564,73.072007 184.468,71.68 L184.468,44.32 C184.468,43.2159945 184.504,42.3880028 184.576,41.836 C184.648,41.2839972 184.851998,40.6720034 185.188,40 C185.860003,38.7039935 187.731985,38.056 190.804,38.056 C193.684014,38.056 195.483996,38.6079945 196.204,39.712 C196.732003,40.4800038 196.996,41.2719959 196.996,42.088 C197.236001,41.7519983 197.583998,41.3440024 198.04,40.864 C198.496002,40.3839976 199.467993,39.7360041 200.956,38.92 C202.444007,38.1039959 203.751994,37.696 204.88,37.696 C206.008006,37.696 206.955996,37.7559994 207.724,37.876 C208.492004,37.9960006 209.331995,38.1999986 210.244,38.488 C211.156005,38.7760014 211.911997,39.2679965 212.512,39.964 Z M331.06,42.376 C331.06,45.4960156 330.436006,48.3159874 329.188,50.836 C327.939994,53.3560126 326.33201,55.3599926 324.364,56.848 C320.37998,59.9200154 316.252021,61.456 311.98,61.456 L302.98,61.456 L302.98,69.592 C302.98,70.6960055 302.944,71.5239972 302.872,72.076 C302.8,72.6280028 302.572002,73.2639964 302.188,73.984 C301.515997,75.2800065 299.644015,75.928 296.572,75.928 C293.211983,75.928 291.244003,75.0400089 290.668,73.264 C290.379999,72.4479959 290.236,71.2000084 290.236,69.52 L290.236,29.56 C290.236,28.4559945 290.272,27.6280028 290.344,27.076 C290.416,26.5239972 290.643998,25.8880036 291.028,25.168 C291.700003,23.8719935 293.571985,23.224 296.644,23.224 L312.052,23.224 C316.276021,23.224 320.37998,24.7599846 324.364,27.832 C326.33201,29.3200074 327.939994,31.3359873 329.188,33.88 C330.436006,36.4240127 331.06,39.2559844 331.06,42.376 Z M316.3,47.128 C317.692007,46.0719947 318.388,44.4880106 318.388,42.376 C318.388,40.2639894 317.692007,38.6680054 316.3,37.588 C314.907993,36.5079946 313.468007,35.968 311.98,35.968 L302.98,35.968 L302.98,48.712 L312.052,48.712 C313.492007,48.712 314.907993,48.1840053 316.3,47.128 Z M360.364,42.088 C360.652001,39.3999866 362.547982,38.056 366.052,38.056 C367.924009,38.056 369.315995,38.1999986 370.228,38.488 C371.140005,38.7760014 371.775998,39.2799964 372.136,40 C372.496002,40.7200036 372.712,41.3559972 372.784,41.908 C372.856,42.4600028 372.892,43.2879945 372.892,44.392 L372.892,69.592 C372.892,70.6960055 372.856,71.5239972 372.784,72.076 C372.712,72.6280028 372.508002,73.2639964 372.172,73.984 C371.499997,75.2320062 369.856013,75.856 367.24,75.856 C364.623987,75.856 362.872004,75.5320032 361.984,74.884 C361.095996,74.2359968 360.580001,73.2880062 360.436,72.04 C358.659991,74.5840127 355.696021,75.856 351.544,75.856 C347.391979,75.856 343.540018,73.960019 339.988,70.168 C336.435982,66.375981 334.66,61.9720251 334.66,56.956 C334.66,51.9399749 336.447982,47.5480188 340.024,43.78 C343.600018,40.0119812 347.523979,38.128 351.796,38.128 C353.428008,38.128 354.915993,38.4159971 356.26,38.992 C357.604007,39.5680029 358.539997,40.1079975 359.068,40.612 C359.596003,41.1160025 360.027998,41.6079976 360.364,42.088 Z M349.132,61.348 C350.380006,62.6200064 351.891991,63.256 353.668,63.256 C355.444009,63.256 356.919994,62.6080065 358.096,61.312 C359.272006,60.0159935 359.86,58.5880078 359.86,57.028 C359.86,55.4679922 359.296006,54.0160067 358.168,52.672 C357.039994,51.3279933 355.528009,50.656 353.632,50.656 C351.735991,50.656 350.200006,51.3279933 349.024,52.672 C347.847994,54.0160067 347.26,55.4799921 347.26,57.064 C347.26,58.6480079 347.883994,60.0759936 349.132,61.348 Z M392.548,61.78 C393.892007,62.9080056 395.319992,63.472 396.832,63.472 C398.344008,63.472 399.759993,63.0280044 401.08,62.14 C402.400007,61.2519956 403.467996,60.808 404.284,60.808 C405.724007,60.808 407.47599,62.0799873 409.54,64.624 C410.644006,66.016007 411.196,67.2639945 411.196,68.368 C411.196,70.1920091 409.876013,71.8959921 407.236,73.48 C404.499986,75.4000096 401.14002,76.36 397.156,76.36 C392.691978,76.36 388.396021,74.7520161 384.268,71.536 C382.29999,69.9999923 380.692006,67.9480128 379.444,65.38 C378.195994,62.8119872 377.572,59.9800155 377.572,56.884 C377.572,53.7879845 378.195994,50.9800126 379.444,48.46 C380.692006,45.9399874 382.29999,43.9120077 384.268,42.376 C388.25202,39.2079842 392.499977,37.624 397.012,37.624 C398.836009,37.624 400.611991,37.8759975 402.34,38.38 C404.068009,38.8840025 405.339996,39.3759976 406.156,39.856 L407.308,40.576 C408.172004,41.1520029 408.843998,41.6079983 409.324,41.944 C410.572006,42.9040048 411.196,43.9959939 411.196,45.22 C411.196,46.4440061 410.692005,47.8239923 409.684,49.36 C407.955991,52.0000132 406.300008,53.32 404.716,53.32 C403.803995,53.32 402.508008,52.7920053 400.828,51.736 C399.963996,50.9199959 398.728008,50.512 397.12,50.512 C395.511992,50.512 394.012007,51.0879942 392.62,52.24 C391.227993,53.3920058 390.532,54.9879898 390.532,57.028 C390.532,59.0680102 391.203993,60.6519944 392.548,61.78 Z M438.196,56.992 L447.772,64.912 C448.972006,65.920005 449.727998,66.6879974 450.04,67.216 C450.352002,67.7440026 450.508,68.2479976 450.508,68.728 C450.508,69.8800058 449.764007,71.4399902 448.276,73.408 C446.643992,75.4240101 445.204006,76.432 443.956,76.432 C442.899995,76.432 441.436009,75.736007 439.564,74.344 L438.844,73.84 C437.739994,72.9279954 436.036012,71.3320114 433.732,69.052 C431.427988,66.7719886 429.676006,65.1520048 428.476,64.192 L428.476,69.736 C428.476,70.8400055 428.44,71.6679972 428.368,72.22 C428.296,72.7720028 428.068002,73.4079964 427.684,74.128 C427.059997,75.3760062 425.212015,76 422.14,76 C419.115985,76 417.268003,75.3520065 416.596,74.056 C416.259998,73.3359964 416.056,72.7000028 415.984,72.148 C415.912,71.5959972 415.876,70.7680055 415.876,69.664 L415.876,26.536 C415.876,25.4319945 415.912,24.6040028 415.984,24.052 C416.056,23.4999972 416.259998,22.8640036 416.596,22.144 C417.268003,20.8479935 419.139985,20.2 422.212,20.2 C424.516012,20.2 426.147995,20.6079959 427.108,21.424 C427.924004,22.0960034 428.356,23.1519928 428.404,24.592 C428.452,25.0240022 428.476,25.6959954 428.476,26.608 L428.476,49.432 C429.340004,48.7119964 430.647991,47.4880086 432.4,45.76 C434.152009,44.0319914 435.459996,42.8080036 436.324,42.088 L437.188,41.512 C438.868008,40.2159935 440.307994,39.568 441.508,39.568 C442.708006,39.568 444.087992,40.5399903 445.648,42.484 C447.208008,44.4280097 447.988,45.9519945 447.988,47.056 C447.988,48.1600055 447.100009,49.4559926 445.324,50.944 L438.196,56.992 Z" id="Power-Pack-Copy" fill="#FFFFFF"></path>
                        </g>
                    </g>
                </g>
            </g>
        </g>
    </g>
</svg>