<?xml version="1.0" encoding="UTF-8" standalone="no"?>
<svg width="74px" height="61px" viewBox="0 0 74 61" version="1.1" xmlns="http://www.w3.org/2000/svg" xmlns:xlink="http://www.w3.org/1999/xlink">
    <!-- Generator: Sketch 41 (35326) - http://www.bohemiancoding.com/sketch -->
    <title>noun_719500_cc</title>
    <desc>Created with Sketch.</desc>
    <defs></defs>
    <g id="Page-1" stroke="none" stroke-width="1" fill="none" fill-rule="evenodd">
        <g id="Artboard" transform="translate(-12.000000, -12.000000)" fill="#5DF35C">
            <g id="noun_719500_cc" transform="translate(12.000000, 12.000000)">
                <g id="Group">
                    <path d="M20.7951596,18.4723781 C22.0105167,16.663408 22.4662757,14.5529429 22.0864765,12.4424778 C21.2509185,8.07080002 16.9971685,5.20659736 12.5914989,6.03570866 C10.4646239,6.41257743 8.64158815,7.61855749 7.35027119,9.42752759 C6.13491404,11.2364977 5.67915511,13.3469628 6.05895422,15.4574279 C6.81855244,19.3014894 10.2367444,22.0149445 14.0347355,22.0149445 C14.4904944,22.0149445 15.0222132,21.9395708 15.5539319,21.864197 C17.6808069,21.4119545 19.5038426,20.2813482 20.7951596,18.4723781 Z M15.2500926,20.3567219 C13.5030167,20.658217 11.7559408,20.2813482 10.3127042,19.3014894 C8.86946761,18.3216306 7.88198994,16.8141555 7.57815065,15.0805592 C7.27431136,13.3469628 7.65411047,11.6133665 8.64158815,10.1812651 C9.62906583,8.7491638 11.1482623,7.769305 12.8953382,7.46780998 C13.2751373,7.39243623 13.7308962,7.39243623 14.1106953,7.39243623 C17.225048,7.39243623 20.0355614,9.5782751 20.5672801,12.7439728 C20.8711194,14.4775691 20.4913203,16.2111655 19.5038426,17.6432668 C18.5163649,19.0753681 16.9971685,20.0552269 15.2500926,20.3567219 Z" id="Shape"></path>
                    <path d="M12.050423,4.83554751 L12.2023427,4.83554751 C12.5821418,4.76017376 12.885981,4.38330499 12.8100212,3.93106246 L12.2023427,0.614617279 C12.1263828,0.237748508 11.7465837,-0.0637465084 11.2908248,0.0116272457 C10.9110257,0.0870009999 10.6071864,0.463869771 10.6831462,0.916112296 L11.2908248,4.23255748 C11.3667846,4.60942625 11.7465837,4.83554751 12.050423,4.83554751 Z" id="Shape"></path>
                    <path d="M14.8479677,23.5857119 C14.4681685,23.6610857 14.1643293,24.0379545 14.2402891,24.490197 L14.8479677,27.8066422 C14.9239275,28.1835109 15.2277668,28.4096322 15.6075659,28.4096322 L15.7594855,28.4096322 C16.1392846,28.3342584 16.4431239,27.9573897 16.3671641,27.5051471 L15.7594855,24.188702 C15.6835257,23.7364594 15.2277668,23.5103382 14.8479677,23.5857119 Z" id="Shape"></path>
                    <path d="M17.4071842,5.89896299 C17.7110235,5.89896299 18.0148627,5.67284173 18.0908226,5.37134672 L19.2302199,2.20564904 C19.3821395,1.82878027 19.1542601,1.37653775 18.774461,1.22579024 C18.3946619,1.07504273 17.9389029,1.30116399 17.7869833,1.67803276 L16.647586,4.84373044 C16.4956663,5.22059921 16.7235458,5.67284173 17.1033449,5.82358924 C17.1793047,5.89896299 17.3312244,5.89896299 17.4071842,5.89896299 Z" id="Shape"></path>
                    <path d="M21.4140043,8.22266246 L23.9966382,6.03682359 C24.3004775,5.73532857 24.3764373,5.28308605 24.072598,4.98159103 C23.7687587,4.68009601 23.3129998,4.60472226 23.0091605,4.90621728 L20.4265266,7.09205615 C20.1226873,7.39355116 20.0467275,7.84579369 20.3505668,8.14728871 C20.5024864,8.29803621 20.7303659,8.37340997 20.9582454,8.37340997 C21.110165,8.44878372 21.2620846,8.37340997 21.4140043,8.22266246 Z" id="Shape"></path>
                    <path d="M27.4017177,11.2217601 C27.3257578,10.8448914 26.9459587,10.5433963 26.4901998,10.6187701 L23.1479677,11.2971339 C22.7681685,11.3725076 22.4643293,11.7493764 22.5402891,12.2016189 C22.6162489,12.5784877 22.9200882,12.804609 23.2998873,12.804609 L23.4518069,12.804609 L26.7940391,12.1262452 C27.249798,12.0508714 27.4776775,11.5986289 27.4017177,11.2217601 Z" id="Shape"></path>
                    <path d="M26.5260681,19.1099264 C26.8299074,19.1099264 27.1337467,18.8838052 27.2856663,18.5823102 C27.437586,18.2054414 27.2097065,17.7531989 26.8299074,17.6024514 L23.5636351,16.5472188 C23.183836,16.3964713 22.728077,16.6225926 22.5761574,16.9994613 C22.4242377,17.3763301 22.6521172,17.8285726 23.0319163,17.9793201 L26.2981886,19.0345527 C26.3741485,19.1099264 26.4501083,19.1099264 26.5260681,19.1099264 Z" id="Shape"></path>
                    <path d="M21.4126586,23.8148366 C21.5645783,23.9655842 21.7924577,24.0409579 21.9443774,24.0409579 C22.096297,24.0409579 22.3241765,23.9655842 22.4760961,23.8148366 C22.7799354,23.5133416 22.7799354,23.0610991 22.552056,22.7596041 L20.2732613,20.2722702 C19.969422,19.9707752 19.5136631,19.9707752 19.2098238,20.1968964 C18.9059845,20.4983915 18.9059845,20.950634 19.133864,21.252129 L21.4126586,23.8148366 Z" id="Shape"></path>
                    <path d="M10.5200626,22.9669824 L9.5325849,26.2080538 C9.38066526,26.5849226 9.60854472,27.0371651 10.0643036,27.1879126 L10.2921831,27.1879126 C10.5960224,27.1879126 10.8998617,26.9617914 11.0517813,26.6602964 L12.039259,23.4192249 C12.1911786,23.0423562 11.9632992,22.5901136 11.5075403,22.4393661 C11.0517813,22.2886186 10.5960224,22.5147399 10.5200626,22.9669824 Z" id="Shape"></path>
                    <path d="M4.31674107,23.8797757 C4.46866071,23.8797757 4.69654018,23.804402 4.84845982,23.6536545 L7.35513393,21.3170681 C7.65897321,21.0155731 7.65897321,20.5633306 7.35513393,20.2618355 C7.05129464,19.9603405 6.59553571,19.9603405 6.29169643,20.2618355 L3.78502232,22.5984219 C3.48118304,22.8999169 3.48118304,23.3521595 3.78502232,23.6536545 C3.93694196,23.804402 4.08886161,23.8797757 4.31674107,23.8797757 Z" id="Shape"></path>
                    <path d="M0.0145540315,16.943921 C0.0905138529,17.3207898 0.394353139,17.5469111 0.774152246,17.5469111 L0.926071889,17.5469111 L4.26830403,16.7931735 C4.64810314,16.7177998 4.95194242,16.2655572 4.80002278,15.8886885 C4.72406296,15.5118197 4.26830403,15.2103247 3.88850492,15.3610722 L0.546272781,16.1148097 C0.166473674,16.1901835 -0.0614057899,16.5670523 0.0145540315,16.943921 Z" id="Shape"></path>
                    <path d="M0.0468706126,9.97062945 C-0.10504903,10.3474982 0.122830434,10.7997407 0.578589363,10.8751145 L3.84486168,11.8549733 L4.07274115,11.8549733 C4.37658043,11.8549733 4.68041972,11.628852 4.83233936,11.327357 C4.98425901,10.9504883 4.75637954,10.4982457 4.30062061,10.422872 L1.03434829,9.44301317 C0.578589363,9.36763941 0.198790255,9.59376068 0.0468706126,9.97062945 Z" id="Shape"></path>
                    <path d="M6.67149554,7.4551495 C6.899375,7.4551495 7.05129464,7.37977575 7.20321429,7.22902824 C7.50705357,6.92753322 7.50705357,6.4752907 7.20321429,6.17379568 L4.84845982,3.76183555 C4.54462054,3.46034053 4.08886161,3.46034053 3.78502232,3.76183555 C3.48118304,4.06333056 3.48118304,4.51557309 3.78502232,4.81706811 L6.13977679,7.22902824 C6.29169643,7.37977575 6.44361607,7.4551495 6.67149554,7.4551495 Z" id="Shape"></path>
                    <path d="M69.8222098,27.3079319 L29.0317857,27.3079319 C28.6519866,27.3079319 28.3481473,27.6094269 28.2721875,27.9862957 L25.5376339,52.2566445 C25.5376339,52.4827658 25.6135938,52.708887 25.6895536,52.8596346 C25.8414732,53.0103821 26.0693527,53.0857558 26.2212723,53.0857558 L41.9449554,53.0857558 L41.1853571,59.4171512 L41.1853571,59.4925249 L32.4499777,59.4925249 C31.9942188,59.4925249 31.6903795,59.7940199 31.6903795,60.2462625 C31.6903795,60.698505 31.9942188,61 32.4499777,61 L66.4799777,61 C66.9357366,61 67.2395759,60.698505 67.2395759,60.2462625 C67.2395759,59.7940199 66.9357366,59.4925249 66.4799777,59.4925249 L57.5926786,59.4925249 L57.5926786,59.4171512 L56.8330804,53.0857558 L72.5567634,53.0857558 C72.7846429,53.0857558 73.0125223,53.0103821 73.0884821,52.8596346 C73.2404018,52.708887 73.3163616,52.4827658 73.2404018,52.2566445 L70.5058482,27.9862957 C70.581808,27.6094269 70.2020089,27.3079319 69.8222098,27.3079319 Z M42.7805134,59.4925249 L43.5401116,53.1611296 L55.3138839,53.1611296 L56.0734821,59.4925249 L42.7805134,59.4925249 Z M70.3539286,39.0662375 L63.4415848,39.0662375 L62.9858259,34.4684385 L69.8222098,34.4684385 L70.3539286,39.0662375 Z M61.9223884,39.0662375 L54.9340848,39.0662375 L54.7062054,34.4684385 L61.4666295,34.4684385 L61.9223884,39.0662375 Z M45.515067,45.1715116 L45.7429464,40.5737126 L53.4908482,40.5737126 L53.7187277,45.1715116 L45.515067,45.1715116 Z M53.7946875,46.6789867 L54.022567,51.5782807 L45.1352679,51.5782807 L45.4391071,46.6789867 L53.7946875,46.6789867 Z M45.8189063,39.0662375 L46.0467857,34.4684385 L53.1110491,34.4684385 L53.3389286,39.0662375 L45.8189063,39.0662375 Z M54.6302455,33.0363372 L54.4023661,28.815407 L60.8589509,28.815407 L61.3147098,33.0363372 L54.6302455,33.0363372 Z M53.1110491,33.0363372 L46.1987054,33.0363372 L46.4265848,28.815407 L52.9591295,28.815407 L53.1110491,33.0363372 Z M44.6795089,33.0363372 L38.0710045,33.0363372 L38.4508036,28.815407 L44.9073884,28.815407 L44.6795089,33.0363372 Z M44.6035491,34.5438123 L44.3756696,39.1416113 L37.4633259,39.1416113 L37.9190848,34.5438123 L44.6035491,34.5438123 Z M35.8681696,39.0662375 L28.500067,39.0662375 L29.0317857,34.4684385 L36.3239286,34.4684385 L35.8681696,39.0662375 Z M28.4241071,40.5737126 L35.7922098,40.5737126 L35.3364509,45.1715116 L27.8923884,45.1715116 L28.4241071,40.5737126 Z M37.3114063,40.5737126 L44.22375,40.5737126 L43.9958705,45.1715116 L36.8556473,45.1715116 L37.3114063,40.5737126 Z M43.9199107,46.6789867 L43.6160714,51.5782807 L36.2479688,51.5782807 L36.7037277,46.6789867 L43.9199107,46.6789867 Z M55.5417634,51.5782807 L55.3138839,46.6789867 L62.6819866,46.6789867 L63.1377455,51.5782807 L55.5417634,51.5782807 Z M55.2379241,45.1715116 L55.0100446,40.5737126 L62.074308,40.5737126 L62.530067,45.1715116 L55.2379241,45.1715116 Z M63.5935045,40.5737126 L70.5058482,40.5737126 L71.037567,45.1715116 L64.0492634,45.1715116 L63.5935045,40.5737126 Z M69.6702902,33.0363372 L62.9098661,33.0363372 L62.4541071,28.815407 L69.2145313,28.815407 L69.6702902,33.0363372 Z M36.8556473,28.815407 L36.4758482,33.0363372 L29.2596652,33.0363372 L29.7154241,28.815407 L36.8556473,28.815407 Z M27.7404688,46.6789867 L35.1845313,46.6789867 L34.7287723,51.5782807 L27.20875,51.5782807 L27.7404688,46.6789867 Z M64.656942,51.5782807 L64.201183,46.6789867 L71.1894866,46.6789867 L71.7212054,51.5782807 L64.656942,51.5782807 Z" id="Shape"></path>
                </g>
            </g>
        </g>
    </g>
</svg>