<?xml version="1.0" encoding="UTF-8" standalone="no"?>
<svg width="92px" height="49px" viewBox="0 0 92 49" version="1.1" xmlns="http://www.w3.org/2000/svg" xmlns:xlink="http://www.w3.org/1999/xlink">
    <!-- Generator: Sketch 41 (35326) - http://www.bohemiancoding.com/sketch -->
    <title>Yearly savings £100</title>
    <desc>Created with Sketch.</desc>
    <defs></defs>
    <g id="Page-1" stroke="none" stroke-width="1" fill="none" fill-rule="evenodd">
        <g id="Artboard" transform="translate(-3.000000, -21.000000)" fill="#F35C9F">
            <path d="M10.374,22.83 L7.252,27.128 L7.252,31.58 C7.252,31.7013339 7.21000042,31.8016663 7.126,31.881 C7.04199958,31.9603337 6.93933394,32 6.818,32 C6.69666606,32 6.59633373,31.9603337 6.517,31.881 C6.43766627,31.8016663 6.398,31.7013339 6.398,31.58 L6.398,27.142 L3.262,22.858 C3.18733296,22.7739996 3.15,22.6760006 3.15,22.564 C3.15,22.4519994 3.1966662,22.3540004 3.29,22.27 C3.3833338,22.1859996 3.48599944,22.144 3.598,22.144 C3.74733408,22.144 3.86399958,22.2093327 3.948,22.34 L6.846,26.288 L9.674,22.34 C9.77666718,22.2093327 9.8979993,22.144 10.038,22.144 C10.1500006,22.144 10.2479996,22.1883329 10.332,22.277 C10.4160004,22.3656671 10.458,22.4613328 10.458,22.564 C10.458,22.6293337 10.4300003,22.7179994 10.374,22.83 Z M17.164,28.297 C17.0799996,28.3763337 16.9820006,28.416 16.87,28.416 L11.578,28.416 C11.578,28.9760028 11.6923322,29.4776645 11.921,29.921 C12.1496678,30.3643355 12.4763312,30.714332 12.901,30.971 C13.3256688,31.227668 13.8273304,31.356 14.406,31.356 C14.8540022,31.356 15.2553316,31.2626676 15.61,31.076 C15.9646684,30.8893324 16.2493323,30.6513348 16.464,30.362 C16.5666672,30.2779996 16.6646662,30.236 16.758,30.236 C16.8513338,30.236 16.935333,30.273333 17.01,30.348 C17.084667,30.422667 17.122,30.5066662 17.122,30.6 C17.122,30.7026672 17.0753338,30.8006662 16.982,30.894 C16.6833318,31.2580018 16.3076689,31.5566655 15.855,31.79 C15.4023311,32.0233345 14.9240025,32.14 14.42,32.14 C13.7013297,32.14 13.0666694,31.9860015 12.516,31.678 C11.9653306,31.3699985 11.5360015,30.9383361 11.228,30.383 C10.9199985,29.8276639 10.766,29.1860036 10.766,28.458 C10.766,27.6926628 10.9176651,27.0230029 11.221,26.449 C11.5243348,25.8749971 11.9279975,25.4363349 12.432,25.133 C12.9360025,24.8296651 13.4726638,24.678 14.042,24.678 C14.6020028,24.678 15.1269975,24.8086654 15.617,25.07 C16.1070024,25.3313346 16.5059985,25.7139975 16.814,26.218 C17.1220015,26.7220025 17.2806666,27.3193299 17.29,28.01 C17.29,28.1220006 17.2480004,28.2176663 17.164,28.297 Z M12.537,26.05 C12.0749977,26.4233352 11.7786673,26.9599965 11.648,27.66 L16.422,27.66 L16.422,27.548 C16.3753331,27.1279979 16.2353345,26.7616682 16.002,26.449 C15.7686655,26.1363318 15.4770017,25.8983341 15.127,25.735 C14.7769982,25.5716659 14.4153352,25.49 14.042,25.49 C13.500664,25.49 12.9990023,25.6766648 12.537,26.05 Z M25.193,24.972 C25.2723337,25.0560004 25.312,25.1586661 25.312,25.28 L25.312,31.58 C25.312,31.7013339 25.2723337,31.8016663 25.193,31.881 C25.1136663,31.9603337 25.0133339,32 24.892,32 C24.7706661,32 24.6703337,31.9603337 24.591,31.881 C24.5116663,31.8016663 24.472,31.7013339 24.472,31.58 L24.472,30.642 C24.2386655,31.0620021 23.888669,31.4166652 23.422,31.706 C22.955331,31.9953348 22.4466694,32.14 21.896,32.14 C21.2706635,32.14 20.7083358,31.9766683 20.209,31.65 C19.7096642,31.3233317 19.3176681,30.8753362 19.033,30.306 C18.7483319,29.7366638 18.606,29.0973369 18.606,28.388 C18.606,27.6786631 18.7506652,27.0416695 19.04,26.477 C19.3293348,25.9123305 19.7236642,25.4713349 20.223,25.154 C20.7223358,24.8366651 21.2753303,24.678 21.882,24.678 C22.4420028,24.678 22.955331,24.813332 23.422,25.084 C23.888669,25.354668 24.2386655,25.7093311 24.472,26.148 L24.472,25.28 C24.472,25.1586661 24.5116663,25.0560004 24.591,24.972 C24.6703337,24.8879996 24.7706661,24.846 24.892,24.846 C25.0133339,24.846 25.1136663,24.8879996 25.193,24.972 Z M23.289,30.971 C23.6763353,30.714332 23.9796656,30.3596689 24.199,29.907 C24.4183344,29.4543311 24.528,28.9480028 24.528,28.388 C24.528,27.846664 24.4183344,27.3520022 24.199,26.904 C23.9796656,26.4559978 23.6763353,26.103668 23.289,25.847 C22.9016647,25.5903321 22.4653358,25.462 21.98,25.462 C21.4946642,25.462 21.0583353,25.5879987 20.671,25.84 C20.2836647,26.0920013 19.9803344,26.4396645 19.761,26.883 C19.5416656,27.3263356 19.432,27.8279972 19.432,28.388 C19.432,28.9480028 19.5393323,29.4543311 19.754,29.907 C19.9686677,30.3596689 20.2696647,30.714332 20.657,30.971 C21.0443353,31.227668 21.4853309,31.356 21.98,31.356 C22.4653358,31.356 22.9016647,31.227668 23.289,30.971 Z M31.36,24.79 C31.5093341,24.864667 31.584,24.9766659 31.584,25.126 C31.584,25.2566673 31.546667,25.3616663 31.472,25.441 C31.397333,25.5203337 31.3086672,25.56 31.206,25.56 C31.1593331,25.56 31.068334,25.5366669 30.933,25.49 C30.797666,25.4433331 30.6693339,25.42 30.548,25.42 C30.2026649,25.42 29.8596684,25.5529987 29.519,25.819 C29.1783316,26.0850013 28.8983344,26.4279979 28.679,26.848 C28.4596656,27.2680021 28.35,27.6926645 28.35,28.122 L28.35,31.58 C28.35,31.7013339 28.3103337,31.8016663 28.231,31.881 C28.1516663,31.9603337 28.0513339,32 27.93,32 C27.8086661,32 27.7083337,31.9603337 27.629,31.881 C27.5496663,31.8016663 27.51,31.7013339 27.51,31.58 L27.51,25.308 C27.51,25.1866661 27.5496663,25.0863337 27.629,25.007 C27.7083337,24.9276663 27.8086661,24.888 27.93,24.888 C28.0513339,24.888 28.1516663,24.9276663 28.231,25.007 C28.3103337,25.0863337 28.35,25.1866661 28.35,25.308 L28.35,26.54 C28.5646677,26.0079973 28.8889978,25.5670018 29.323,25.217 C29.7570022,24.8669982 30.2679971,24.6873334 30.856,24.678 C31.0426676,24.678 31.2106659,24.715333 31.36,24.79 Z M33.705,31.881 C33.6256663,31.9603337 33.5253339,32 33.404,32 C33.2826661,32 33.1823337,31.9603337 33.103,31.881 C33.0236663,31.8016663 32.984,31.7013339 32.984,31.58 L32.984,22.06 C32.984,21.9386661 33.0236663,21.8383337 33.103,21.759 C33.1823337,21.6796663 33.2826661,21.64 33.404,21.64 C33.5253339,21.64 33.6256663,21.6796663 33.705,21.759 C33.7843337,21.8383337 33.824,21.9386661 33.824,22.06 L33.824,31.58 C33.824,31.7013339 33.7843337,31.8016663 33.705,31.881 Z M41.545,24.839 C41.6243337,24.9183337 41.664,25.0186661 41.664,25.14 L41.664,31.314 C41.664,32.051337 41.5193348,32.6813307 41.23,33.204 C40.9406652,33.7266693 40.5393359,34.123332 40.026,34.394 C39.5126641,34.664668 38.9340032,34.8 38.29,34.8 C37.897998,34.8 37.5316684,34.7580004 37.191,34.674 C36.8503316,34.5899996 36.5680011,34.4780007 36.344,34.338 C36.147999,34.2166661 36.05,34.0813341 36.05,33.932 C36.05,33.9133332 36.0593332,33.866667 36.078,33.792 C36.1060001,33.6986662 36.1526663,33.6286669 36.218,33.582 C36.2833337,33.5353331 36.353333,33.512 36.428,33.512 C36.4840003,33.512 36.5399997,33.5259999 36.596,33.554 C37.1933363,33.8806683 37.762664,34.044 38.304,34.044 C39.0786705,34.044 39.6923311,33.8013358 40.145,33.316 C40.5976689,32.8306642 40.824,32.1680042 40.824,31.328 L40.824,30.838 C40.5906655,31.230002 40.2546689,31.5449988 39.816,31.783 C39.3773311,32.0210012 38.9013359,32.14 38.388,32.14 C37.5759959,32.14 36.9600021,31.8973358 36.54,31.412 C36.1199979,30.9266642 35.91,30.2686708 35.91,29.438 L35.91,25.14 C35.91,25.0186661 35.9496663,24.9183337 36.029,24.839 C36.1083337,24.7596663 36.2086661,24.72 36.33,24.72 C36.4513339,24.72 36.5516663,24.7596663 36.631,24.839 C36.7103337,24.9183337 36.75,25.0186661 36.75,25.14 L36.75,29.312 C36.75,29.9840034 36.8969985,30.4926649 37.191,30.838 C37.4850015,31.1833351 37.9446635,31.356 38.57,31.356 C38.9526686,31.356 39.3189982,31.2603343 39.669,31.069 C40.0190017,30.8776657 40.2989989,30.6256682 40.509,30.313 C40.719001,30.0003318 40.824,29.6666684 40.824,29.312 L40.824,25.14 C40.824,25.0186661 40.8636663,24.9183337 40.943,24.839 C41.0223337,24.7596663 41.1226661,24.72 41.244,24.72 C41.3653339,24.72 41.4656663,24.7596663 41.545,24.839 Z M47.166,30.558 C47.166,30.4366661 47.2266661,30.3433337 47.348,30.278 C47.4040003,30.2219997 47.4786662,30.194 47.572,30.194 C47.6840006,30.194 47.7866662,30.2406662 47.88,30.334 C48.4306694,31.0620036 49.1633288,31.426 50.078,31.426 C50.5260022,31.426 50.915665,31.3210011 51.247,31.111 C51.578335,30.900999 51.744,30.5953353 51.744,30.194 C51.744,29.801998 51.5900015,29.508001 51.282,29.312 C50.9739985,29.115999 50.5446694,28.9480007 49.994,28.808 C49.2193295,28.611999 48.6126689,28.3576682 48.174,28.045 C47.7353311,27.7323318 47.516,27.2726697 47.516,26.666 C47.516,26.2833314 47.6233323,25.9403348 47.838,25.637 C48.0526677,25.3336652 48.3443315,25.0980008 48.713,24.93 C49.0816685,24.7619992 49.499331,24.678 49.966,24.678 C50.3673353,24.678 50.770998,24.7549992 51.177,24.909 C51.583002,25.0630008 51.9306652,25.3079983 52.22,25.644 C52.3040004,25.7093337 52.346,25.8026661 52.346,25.924 C52.346,26.0360006 52.2993338,26.1339996 52.206,26.218 C52.1406663,26.2740003 52.0566672,26.302 51.954,26.302 C51.8606662,26.302 51.776667,26.264667 51.702,26.19 C51.4779989,25.9379987 51.2120015,25.7466673 50.904,25.616 C50.5959985,25.4853327 50.2646684,25.42 49.91,25.42 C49.4713311,25.42 49.0956682,25.5226656 48.783,25.728 C48.4703318,25.9333344 48.314,26.2413313 48.314,26.652 C48.3326668,27.0253352 48.5029984,27.309999 48.825,27.506 C49.1470016,27.702001 49.6206635,27.8793325 50.246,28.038 C50.7313358,28.1593339 51.1326651,28.2946659 51.45,28.444 C51.7673349,28.5933341 52.0263323,28.803332 52.227,29.074 C52.4276677,29.344668 52.528,29.7039978 52.528,30.152 C52.528,30.7586697 52.2853358,31.2416649 51.8,31.601 C51.3146642,31.9603351 50.7126703,32.14 49.994,32.14 C48.8553276,32.14 47.9500034,31.7153376 47.278,30.866 C47.203333,30.7446661 47.166,30.6420004 47.166,30.558 Z M60.473,24.972 C60.5523337,25.0560004 60.592,25.1586661 60.592,25.28 L60.592,31.58 C60.592,31.7013339 60.5523337,31.8016663 60.473,31.881 C60.3936663,31.9603337 60.2933339,32 60.172,32 C60.0506661,32 59.9503337,31.9603337 59.871,31.881 C59.7916663,31.8016663 59.752,31.7013339 59.752,31.58 L59.752,30.642 C59.5186655,31.0620021 59.168669,31.4166652 58.702,31.706 C58.235331,31.9953348 57.7266694,32.14 57.176,32.14 C56.5506635,32.14 55.9883358,31.9766683 55.489,31.65 C54.9896642,31.3233317 54.5976681,30.8753362 54.313,30.306 C54.0283319,29.7366638 53.886,29.0973369 53.886,28.388 C53.886,27.6786631 54.0306652,27.0416695 54.32,26.477 C54.6093348,25.9123305 55.0036642,25.4713349 55.503,25.154 C56.0023358,24.8366651 56.5553303,24.678 57.162,24.678 C57.7220028,24.678 58.235331,24.813332 58.702,25.084 C59.168669,25.354668 59.5186655,25.7093311 59.752,26.148 L59.752,25.28 C59.752,25.1586661 59.7916663,25.0560004 59.871,24.972 C59.9503337,24.8879996 60.0506661,24.846 60.172,24.846 C60.2933339,24.846 60.3936663,24.8879996 60.473,24.972 Z M58.569,30.971 C58.9563353,30.714332 59.2596656,30.3596689 59.479,29.907 C59.6983344,29.4543311 59.808,28.9480028 59.808,28.388 C59.808,27.846664 59.6983344,27.3520022 59.479,26.904 C59.2596656,26.4559978 58.9563353,26.103668 58.569,25.847 C58.1816647,25.5903321 57.7453358,25.462 57.26,25.462 C56.7746642,25.462 56.3383353,25.5879987 55.951,25.84 C55.5636647,26.0920013 55.2603344,26.4396645 55.041,26.883 C54.8216656,27.3263356 54.712,27.8279972 54.712,28.388 C54.712,28.9480028 54.8193323,29.4543311 55.034,29.907 C55.2486677,30.3596689 55.5496647,30.714332 55.937,30.971 C56.3243353,31.227668 56.7653309,31.356 57.26,31.356 C57.7453358,31.356 58.1816647,31.227668 58.569,30.971 Z M68.292,24.804 C68.3760004,24.8693337 68.418,24.9533328 68.418,25.056 C68.418,25.1400004 68.3993335,25.219333 68.362,25.294 L65.618,31.734 C65.5806665,31.808667 65.5270004,31.8716664 65.457,31.923 C65.3869997,31.9743336 65.314667,32 65.24,32 C65.1466662,32.0093334 65.062667,31.9906669 64.988,31.944 C64.913333,31.8973331 64.8573335,31.8273338 64.82,31.734 L62.062,25.294 C62.062,25.2753332 62.0550001,25.2473335 62.041,25.21 C62.0269999,25.1726665 62.02,25.1353335 62.02,25.098 C62.02,24.9859994 62.057333,24.8903337 62.132,24.811 C62.206667,24.7316663 62.3139993,24.692 62.454,24.692 C62.5380004,24.692 62.6149996,24.7176664 62.685,24.769 C62.7550003,24.8203336 62.8086665,24.8879996 62.846,24.972 L65.226,30.642 L67.62,24.972 C67.6573335,24.8879996 67.7109996,24.8203336 67.781,24.769 C67.8510003,24.7176664 67.9326662,24.6966666 68.026,24.706 C68.1193338,24.706 68.2079996,24.7386663 68.292,24.804 Z M70.721,31.881 C70.6416663,31.9603337 70.5413339,32 70.42,32 C70.2986661,32 70.1983337,31.9603337 70.119,31.881 C70.0396663,31.8016663 70,31.7013339 70,31.58 L70,25.14 C70,25.0186661 70.0396663,24.9183337 70.119,24.839 C70.1983337,24.7596663 70.2986661,24.72 70.42,24.72 C70.5413339,24.72 70.6416663,24.7596663 70.721,24.839 C70.8003337,24.9183337 70.84,25.0186661 70.84,25.14 L70.84,31.58 C70.84,31.7013339 70.8003337,31.8016663 70.721,31.881 Z M69.986,23.649 C69.8833328,23.5603329 69.832,23.4320008 69.832,23.264 L69.832,23.124 C69.832,22.9559992 69.8856661,22.8276671 69.993,22.739 C70.1003339,22.6503329 70.2473324,22.606 70.434,22.606 C70.8073352,22.606 70.994,22.7786649 70.994,23.124 L70.994,23.264 C70.994,23.4320008 70.9450005,23.5603329 70.847,23.649 C70.7489995,23.7376671 70.6066676,23.782 70.42,23.782 C70.2333324,23.782 70.0886672,23.7376671 69.986,23.649 Z M78.309,25.441 C78.715002,25.9496692 78.918,26.6239958 78.918,27.464 L78.918,31.58 C78.918,31.7013339 78.8760004,31.8016663 78.792,31.881 C78.7079996,31.9603337 78.6100006,32 78.498,32 C78.3766661,32 78.2763337,31.9603337 78.197,31.881 C78.1176663,31.8016663 78.078,31.7013339 78.078,31.58 L78.078,27.506 C78.078,26.8993303 77.9263348,26.4070019 77.623,26.029 C77.3196651,25.6509981 76.8506698,25.462 76.216,25.462 C75.8146647,25.462 75.4343351,25.5553324 75.075,25.742 C74.7156649,25.9286676 74.4240011,26.1783318 74.2,26.491 C73.9759989,26.8036682 73.864,27.1419982 73.864,27.506 L73.864,31.58 C73.864,31.7013339 73.8243337,31.8016663 73.745,31.881 C73.6656663,31.9603337 73.5653339,32 73.444,32 C73.3226661,32 73.2223337,31.9603337 73.143,31.881 C73.0636663,31.8016663 73.024,31.7013339 73.024,31.58 L73.024,25.308 C73.024,25.1866661 73.0636663,25.0863337 73.143,25.007 C73.2223337,24.9276663 73.3226661,24.888 73.444,24.888 C73.5653339,24.888 73.6656663,24.9276663 73.745,25.007 C73.8243337,25.0863337 73.864,25.1866661 73.864,25.308 L73.864,26.078 C74.1160013,25.6766647 74.4776643,25.3430013 74.949,25.077 C75.4203357,24.8109987 75.9033309,24.678 76.398,24.678 C77.2660043,24.678 77.902998,24.9323308 78.309,25.441 Z M87.465,24.965 C87.5443337,25.0443337 87.584,25.1493327 87.584,25.28 L87.584,31.342 C87.584,32.0700036 87.4323348,32.6929974 87.129,33.211 C86.8256651,33.7290026 86.410336,34.123332 85.883,34.394 C85.355664,34.664668 84.7513367,34.8 84.07,34.8 C83.7433317,34.8 83.4003351,34.7580004 83.041,34.674 C82.6816649,34.5899996 82.3736679,34.4826673 82.117,34.352 C81.860332,34.2213327 81.7133335,34.0860007 81.676,33.946 C81.6106663,33.8806663 81.578,33.8060004 81.578,33.722 C81.578,33.6286662 81.6199996,33.5540003 81.704,33.498 C81.7413335,33.4699999 81.7879997,33.456 81.844,33.456 C81.9000003,33.456 82.0073325,33.4886663 82.166,33.554 L82.46,33.68 C83.0386696,33.9040011 83.5799975,34.016 84.084,34.016 C84.9146708,34.016 85.5656643,33.7803357 86.037,33.309 C86.5083357,32.8376643 86.744,32.2006707 86.744,31.398 L86.744,30.53 C86.5106655,31.0340025 86.1420025,31.4283319 85.638,31.713 C85.1339975,31.9976681 84.6066694,32.14 84.056,32.14 C83.4119968,32.14 82.8310026,31.9790016 82.313,31.657 C81.7949974,31.3349984 81.3866682,30.8893362 81.088,30.32 C80.7893318,29.7506638 80.64,29.1113369 80.64,28.402 C80.64,27.7019965 80.7893318,27.0673362 81.088,26.498 C81.3866682,25.9286638 81.7949974,25.4830016 82.313,25.161 C82.8310026,24.8389984 83.4073302,24.678 84.042,24.678 C84.6300029,24.678 85.1689976,24.8249985 85.659,25.119 C86.1490024,25.4130015 86.5106655,25.7653313 86.744,26.176 L86.744,25.28 C86.744,25.1586661 86.7836663,25.0560004 86.863,24.972 C86.9423337,24.8879996 87.0426661,24.846 87.164,24.846 C87.2853339,24.846 87.3856663,24.8856663 87.465,24.965 Z M85.505,30.985 C85.911002,30.7376654 86.2283322,30.3876689 86.457,29.935 C86.6856678,29.4823311 86.8,28.9713362 86.8,28.402 C86.8,27.8326638 86.6856678,27.3240022 86.457,26.876 C86.2283322,26.4279978 85.911002,26.0803346 85.505,25.833 C85.098998,25.5856654 84.6393359,25.462 84.126,25.462 C83.6219975,25.462 83.167002,25.5903321 82.761,25.847 C82.354998,26.103668 82.0376678,26.4559978 81.809,26.904 C81.5803322,27.3520022 81.466,27.8513306 81.466,28.402 C81.466,28.9620028 81.5803322,29.4659978 81.809,29.914 C82.0376678,30.3620022 82.354998,30.714332 82.761,30.971 C83.167002,31.227668 83.6219975,31.356 84.126,31.356 C84.6393359,31.356 85.098998,31.2323346 85.505,30.985 Z M89.138,30.558 C89.138,30.4366661 89.1986661,30.3433337 89.32,30.278 C89.3760003,30.2219997 89.4506662,30.194 89.544,30.194 C89.6560006,30.194 89.7586662,30.2406662 89.852,30.334 C90.4026694,31.0620036 91.1353288,31.426 92.05,31.426 C92.4980022,31.426 92.887665,31.3210011 93.219,31.111 C93.550335,30.900999 93.716,30.5953353 93.716,30.194 C93.716,29.801998 93.5620015,29.508001 93.254,29.312 C92.9459985,29.115999 92.5166694,28.9480007 91.966,28.808 C91.1913295,28.611999 90.5846689,28.3576682 90.146,28.045 C89.7073311,27.7323318 89.488,27.2726697 89.488,26.666 C89.488,26.2833314 89.5953323,25.9403348 89.81,25.637 C90.0246677,25.3336652 90.3163315,25.0980008 90.685,24.93 C91.0536685,24.7619992 91.471331,24.678 91.938,24.678 C92.3393353,24.678 92.742998,24.7549992 93.149,24.909 C93.555002,25.0630008 93.9026652,25.3079983 94.192,25.644 C94.2760004,25.7093337 94.318,25.8026661 94.318,25.924 C94.318,26.0360006 94.2713338,26.1339996 94.178,26.218 C94.1126663,26.2740003 94.0286672,26.302 93.926,26.302 C93.8326662,26.302 93.748667,26.264667 93.674,26.19 C93.4499989,25.9379987 93.1840015,25.7466673 92.876,25.616 C92.5679985,25.4853327 92.2366684,25.42 91.882,25.42 C91.4433311,25.42 91.0676682,25.5226656 90.755,25.728 C90.4423318,25.9333344 90.286,26.2413313 90.286,26.652 C90.3046668,27.0253352 90.4749984,27.309999 90.797,27.506 C91.1190016,27.702001 91.5926635,27.8793325 92.218,28.038 C92.7033358,28.1593339 93.1046651,28.2946659 93.422,28.444 C93.7393349,28.5933341 93.9983323,28.803332 94.199,29.074 C94.3996677,29.344668 94.5,29.7039978 94.5,30.152 C94.5,30.7586697 94.2573358,31.2416649 93.772,31.601 C93.2866642,31.9603351 92.6846703,32.14 91.966,32.14 C90.8273276,32.14 89.9220034,31.7153376 89.25,30.866 C89.175333,30.7446661 89.138,30.6420004 89.138,30.558 Z M32.404,66.804 C32.5600008,66.996001 32.638,67.2239987 32.638,67.488 C32.638,68.0400028 32.2780036,68.4839983 31.558,68.82 C31.0059972,69.1560017 30.4120032,69.4079992 29.776,69.576 C29.1399968,69.7440008 28.5460028,69.828 27.994,69.828 C27.3459968,69.828 26.6860034,69.7620007 26.014,69.63 C25.3419966,69.4979993 24.4180059,69.2880014 23.242,69 C22.233995,68.7359987 21.4060032,68.5380007 20.758,68.406 C20.1099968,68.2739993 19.4980029,68.208 18.922,68.208 C17.9859953,68.208 17.0620046,68.3339987 16.15,68.586 C15.2379954,68.8380013 14.686001,68.9879998 14.494,69.036 C14.2539988,69.0840002 13.9480019,69.1859992 13.576,69.342 C13.2039981,69.4980008 12.9700005,69.576 12.874,69.576 C12.6099987,69.576 12.3940008,69.480001 12.226,69.288 C12.0579992,69.095999 11.974,68.8800012 11.974,68.64 C11.974,68.3759987 12.0579992,68.148001 12.226,67.956 C12.3940008,67.763999 12.6219986,67.6200005 12.91,67.524 L14.026,67.2 L15.646,66.732 C16.0300019,66.2759977 16.3479987,65.6880036 16.6,64.968 C16.8520013,64.2479964 16.978,63.4680042 16.978,62.628 C16.978,61.9079964 16.9060007,61.2000035 16.762,60.504 C16.6179993,59.8079965 16.4140013,58.956005 16.15,57.948 C16.0779996,57.755999 15.9940005,57.4680019 15.898,57.084 L13.198,57.084 C12.8859984,57.084 12.634001,56.988001 12.442,56.796 C12.249999,56.603999 12.154,56.3640014 12.154,56.076 C12.154,55.7879986 12.249999,55.548001 12.442,55.356 C12.634001,55.163999 12.8859984,55.068 13.198,55.068 L15.394,55.068 C15.1539988,53.9399944 15.034,52.8600052 15.034,51.828 C15.034,49.2839873 15.7419929,47.2500076 17.158,45.726 C18.5740071,44.2019924 20.4939879,43.44 22.918,43.44 C24.2140065,43.44 25.4499941,43.6559978 26.626,44.088 C27.8020059,44.5200022 28.7499964,45.1439959 29.47,45.96 C29.9980026,46.4400024 30.262,46.8479983 30.262,47.184 C30.262,47.4480013 30.1420012,47.6999988 29.902,47.94 C29.6619988,48.1800012 29.3860016,48.3 29.074,48.3 C28.7619984,48.3 28.510001,48.1920011 28.318,47.976 C27.6939969,47.2079962 26.9200046,46.6080022 25.996,46.176 C25.0719954,45.7439978 24.0460056,45.528 22.918,45.528 C21.1899914,45.528 19.8160051,46.1099942 18.796,47.274 C17.7759949,48.4380058 17.266,49.9559906 17.266,51.828 C17.266,52.836005 17.3859988,53.9159942 17.626,55.068 L26.41,55.068 C26.6980014,55.068 26.943999,55.169999 27.148,55.374 C27.352001,55.578001 27.454,55.8239986 27.454,56.112 C27.454,56.4000014 27.352001,56.6339991 27.148,56.814 C26.943999,56.9940009 26.6980014,57.084 26.41,57.084 L18.13,57.084 L18.382,58.056 C18.6700014,59.064005 18.8799993,59.8859968 19.012,60.522 C19.1440007,61.1580032 19.21,61.775997 19.21,62.376 C19.21,63.768007 18.8380037,65.063994 18.094,66.264 C18.3100011,66.2399999 18.6459977,66.228 19.102,66.228 C19.7740034,66.228 20.4699964,66.2999993 21.19,66.444 C21.9100036,66.5880007 22.8219945,66.7919987 23.926,67.056 C24.9100049,67.2960012 25.6959971,67.4759994 26.284,67.596 C26.8720029,67.7160006 27.4299974,67.776 27.958,67.776 C29.158006,67.776 30.1059965,67.4880029 30.802,66.912 C31.0900014,66.6479987 31.3899984,66.516 31.702,66.516 C32.0140016,66.516 32.2479992,66.611999 32.404,66.804 Z M41.008,44.142 C41.1880009,44.346001 41.278,44.5919986 41.278,44.88 L41.278,67.92 C41.278,68.2320016 41.1640011,68.489999 40.936,68.694 C40.7079989,68.898001 40.4260017,69 40.09,69 C39.7779984,69 39.5140011,68.898001 39.298,68.694 C39.0819989,68.489999 38.974,68.2320016 38.974,67.92 L38.974,46.86 L34.474,49.524 C34.3059992,49.6200005 34.1380008,49.668 33.97,49.668 C33.6579984,49.668 33.3880011,49.5480012 33.16,49.308 C32.9319989,49.0679988 32.818,48.8040014 32.818,48.516 C32.818,48.3479992 32.8719995,48.1800008 32.98,48.012 C33.0880005,47.8439992 33.2259992,47.7120005 33.394,47.616 L39.478,43.944 C39.7180012,43.7999993 40.0059983,43.7519998 40.342,43.8 C40.6060013,43.8240001 40.8279991,43.937999 41.008,44.142 Z M50.53,67.668 C49.2339935,66.5399944 48.2560033,64.9980098 47.596,63.042 C46.9359967,61.0859902 46.606,58.8720124 46.606,56.4 C46.606,53.9039875 46.9299968,51.6840097 47.578,49.74 C48.2260032,47.7959903 49.2039935,46.2600056 50.512,45.132 C51.8200065,44.0039944 53.4219905,43.44 55.318,43.44 C57.2140095,43.44 58.8159935,43.9979944 60.124,45.114 C61.4320065,46.2300056 62.4159967,47.7659902 63.076,49.722 C63.7360033,51.6780098 64.066,53.9039875 64.066,56.4 C64.066,58.8720124 63.7360033,61.0859902 63.076,63.042 C62.4159967,64.9980098 61.4320065,66.5399944 60.124,67.668 C58.8159935,68.7960056 57.2140095,69.36 55.318,69.36 C53.4219905,69.36 51.8260065,68.7960056 50.53,67.668 Z M60.088,64.23 C61.2040056,62.2979903 61.762,59.6880164 61.762,56.4 C61.762,53.0879834 61.2040056,50.4660097 60.088,48.534 C58.9719944,46.6019903 57.3820103,45.636 55.318,45.636 C53.2779898,45.636 51.7000056,46.6019903 50.584,48.534 C49.4679944,50.4660097 48.91,53.0879834 48.91,56.4 C48.91,59.6880164 49.4679944,62.2979903 50.584,64.23 C51.7000056,66.1620097 53.2779898,67.128 55.318,67.128 C57.3820103,67.128 58.9719944,66.1620097 60.088,64.23 Z M71.95,67.668 C70.6539935,66.5399944 69.6760033,64.9980098 69.016,63.042 C68.3559967,61.0859902 68.026,58.8720124 68.026,56.4 C68.026,53.9039875 68.3499968,51.6840097 68.998,49.74 C69.6460032,47.7959903 70.6239935,46.2600056 71.932,45.132 C73.2400065,44.0039944 74.8419905,43.44 76.738,43.44 C78.6340095,43.44 80.2359935,43.9979944 81.544,45.114 C82.8520065,46.2300056 83.8359967,47.7659902 84.496,49.722 C85.1560033,51.6780098 85.486,53.9039875 85.486,56.4 C85.486,58.8720124 85.1560033,61.0859902 84.496,63.042 C83.8359967,64.9980098 82.8520065,66.5399944 81.544,67.668 C80.2359935,68.7960056 78.6340095,69.36 76.738,69.36 C74.8419905,69.36 73.2460065,68.7960056 71.95,67.668 Z M81.508,64.23 C82.6240056,62.2979903 83.182,59.6880164 83.182,56.4 C83.182,53.0879834 82.6240056,50.4660097 81.508,48.534 C80.3919944,46.6019903 78.8020103,45.636 76.738,45.636 C74.6979898,45.636 73.1200056,46.6019903 72.004,48.534 C70.8879944,50.4660097 70.33,53.0879834 70.33,56.4 C70.33,59.6880164 70.8879944,62.2979903 72.004,64.23 C73.1200056,66.1620097 74.6979898,67.128 76.738,67.128 C78.8020103,67.128 80.3919944,66.1620097 81.508,64.23 Z" id="Yearly-savings-£100"></path>
        </g>
    </g>
</svg>