<?xml version="1.0" encoding="UTF-8"?>
<svg width="295px" height="388px" viewBox="0 0 295 388" version="1.1" xmlns="http://www.w3.org/2000/svg" xmlns:xlink="http://www.w3.org/1999/xlink">
    <!-- Generator: Sketch 42 (36781) - http://www.bohemiancoding.com/sketch -->
    <title>turbine</title>
    <desc>Created with Sketch.</desc>
    <defs></defs>
    <g id="Page-1" stroke="none" stroke-width="1" fill="none" fill-rule="evenodd">
        <path d="M10.7164549,186.967468 L12.107474,186.967468 L123.389002,171.202231 C127.098387,170.738547 130.344098,168.883814 133.126136,165.638029 C134.517155,164.246979 135.444501,162.392245 135.444501,163.319612 L123.389002,378.468729 L109.015138,378.468729 C106.2331,378.468729 104.378408,380.323463 104.378408,383.105564 C104.378408,385.887665 106.2331,387.742397 109.015138,387.742397 L185.521189,387.742397 C188.303227,387.742397 190.157919,385.887665 190.157919,383.105564 C190.157919,380.323463 188.303227,378.468729 185.521189,378.468729 L171.147325,378.468729 L159.555499,167.02908 C160.482845,168.883814 161.873864,170.274864 163.728556,171.665914 L255.99949,235.654229 C257.854182,237.04528 260.172547,237.508963 262.027239,237.508963 C265.272951,237.508963 268.518662,236.117913 270.837027,233.335812 C274.082738,228.698978 273.619065,222.207409 268.982335,218.497942 L182.73915,146.163325 C179.957112,143.844908 176.247728,142.453857 172.074671,142.453857 C170.683652,142.453857 169.292633,142.917541 168.365287,142.917541 C167.901613,139.208073 166.510594,135.962289 164.192229,132.716505 C164.655902,132.716505 165.119575,132.252822 165.119575,132.252822 L165.119575,132.252822 C168.365287,129.934404 170.683652,126.68862 171.147325,122.979153 L195.721996,13.0861771 C197.113015,7.52197584 193.403631,1.95777453 187.839554,0.566724205 C182.275478,-0.824326119 176.711401,1.95777453 174.856709,7.52197584 L140.544904,114.169167 C139.617559,117.878635 139.617559,121.588103 141.47225,125.29757 C141.47225,125.761253 141.935924,126.224937 141.935924,126.224937 C139.617559,127.152304 137.299193,128.543354 135.444501,130.398088 C132.19879,133.180189 130.344098,136.889656 129.416752,141.062807 C128.953079,141.062807 128.953079,140.599124 128.489406,140.599124 C125.243694,138.74439 121.070637,138.280706 117.361253,139.208073 L8.39808977,165.638029 C2.83401335,167.02908 -0.87537092,172.593281 0.515648181,178.157482 C1.44299425,183.258 5.61605155,186.967468 10.7164549,186.967468 Z M132.662463,378.005046 L144.254289,167.492763 L149.818365,167.492763 L161.410191,378.005046 L132.662463,378.005046 Z M172.538344,151.727526 C174.393036,151.727526 175.784055,152.19121 176.711401,153.118576 L262.954586,224.98951 C263.418258,225.453193 263.881932,226.38056 262.954586,227.307927 C262.490912,227.771611 261.563566,228.235294 261.099893,227.771611 L168.828959,163.783296 C167.43794,162.855929 166.510594,161.464878 166.510594,160.073828 C166.046921,158.219095 166.510594,156.364361 167.901613,154.509627 C168.828959,153.118576 170.683652,152.19121 172.538344,151.727526 Z M149.818365,117.414951 L184.13017,10.7677599 C184.13017,10.3040765 185.057516,9.84039305 185.521189,9.84039305 L185.984862,9.84039305 C186.912208,9.84039305 187.375881,10.7677599 186.912208,11.6951268 L162.337537,121.124419 C161.873864,122.515469 160.946518,123.90652 159.555499,124.833887 C158.16448,125.761253 155.846115,126.224937 153.991422,125.761253 C152.13673,125.29757 150.745711,123.90652 149.818365,122.051786 C149.354692,120.660736 149.354692,118.806002 149.818365,117.414951 Z M138.690212,145.235958 C138.690212,142.453857 140.081231,140.13544 141.935924,138.280706 C143.790616,136.425973 146.108981,135.498606 148.891019,135.498606 L149.354692,135.498606 C152.13673,135.498606 154.455096,136.889656 156.309788,138.74439 C158.16448,140.599124 159.091826,143.381224 159.091826,146.163325 C159.091826,148.945425 157.700807,151.263843 155.846115,153.118576 C153.991422,154.97331 151.209384,155.900677 148.427346,155.900677 C145.645308,155.900677 143.326943,154.509627 141.47225,152.654893 C139.153885,150.336476 138.226539,148.018059 138.690212,145.235958 L138.690212,145.235958 Z M10.2527819,174.448015 L119.679618,148.945425 L121.070637,148.945425 C121.997983,148.945425 123.389002,149.409109 124.316348,149.872792 C126.171041,150.800159 127.098387,152.654893 127.56206,154.509627 C128.025732,156.364361 127.56206,158.219095 126.171041,160.073828 C125.243694,161.464878 123.852675,161.928562 122.461656,162.392245 L11.643801,178.157482 C10.7164549,178.157482 10.2527819,177.693799 9.78910888,176.766432 C9.32543583,175.839065 9.78910888,174.911698 10.2527819,174.448015 Z M145.181635,24.293724 C147.5,24.293724 149.818365,26.1484578 150.282038,28.9305584 C150.282038,31.2489756 148.427346,33.5673929 145.645308,33.5673929 C89.5408706,35.4221266 42.7098941,78.5446866 37.1458179,134.650383 C36.6821448,136.9688 34.8274527,138.823534 32.5090875,138.823534 L32.0454145,138.823534 C29.2633763,138.359851 27.4086842,136.041434 27.8723572,133.723016 C33.9001066,73.4441689 84.4404674,26.1484578 145.181635,24.293724 Z M28.3360302,70.1983847 C27.4086842,70.1983847 26.4813381,69.7347013 26.017665,69.2710178 C23.6992999,67.8799674 23.2356269,65.0978671 24.6266459,62.7794498 C52.4470279,21.5116234 99.2780044,-2.13623215 148.427346,0.645868499 C151.209384,0.645868499 153.064076,2.50060227 153.064076,5.28270291 C153.064076,8.06480357 150.745711,9.91953732 148.427346,9.91953732 C102.060043,7.60112011 58.4747775,29.3942419 32.0454145,68.3436509 C31.1180684,69.2710178 29.7270493,70.1983847 28.3360302,70.1983847 Z M4.68870549,144.851419 C1.90666729,144.851419 0.0519751485,142.533002 0.0519751485,139.750901 C0.979321218,121.203563 5.15237854,100.337809 11.643801,85.9636219 C12.5711471,83.6452046 15.3531853,82.7178377 17.6715504,83.6452046 C19.9899156,84.5725715 20.9172617,87.3546722 19.9899156,89.6730891 C14.4258392,103.583592 10.2527819,122.594614 9.32543583,140.214584 C9.32543583,142.996685 7.47074371,144.851419 4.68870549,144.851419 Z M260.172547,109.611477 C262.490912,109.147794 265.272951,110.538844 266.200297,113.320945 C271.764373,138.359851 269.446008,163.86244 258.781528,187.510295 C257.854182,189.365029 256.463163,190.292396 254.608471,190.292396 C254.144798,190.292396 253.217452,190.292396 252.753779,189.828713 C250.435414,188.901346 249.508068,186.119245 250.435414,183.800828 C260.172547,162.007706 262.490912,138.359851 256.926836,115.175678 C255.99949,112.857262 257.854182,110.075161 260.172547,109.611477 Z M208.70484,47.9415796 C206.850148,46.5505292 205.459129,43.304745 206.850148,41.4500115 C208.241168,39.5952777 211.023206,38.6679108 213.341571,40.0589612 C233.279511,52.5784141 248.580721,70.1983847 258.317855,91.527823 C259.245201,93.8462402 258.317855,96.628341 255.99949,97.5557079 C255.535817,98.0193914 254.608471,98.0193914 254.144798,98.0193914 C252.290106,98.0193914 250.899087,97.0920244 249.97174,95.2372906 C241.161953,75.7625862 226.788089,59.0699821 208.70484,47.9415796 Z M269.446008,196.320281 C290.774967,157.370872 290.311295,111.002528 268.054989,72.0531185 C267.127643,69.7347013 267.591316,66.9526005 269.909681,65.5615505 C272.228046,64.6341836 275.010084,65.0978671 276.401104,67.416284 C300.512101,109.147794 300.975774,158.761922 277.792123,200.957115 C276.864777,202.348166 275.473758,203.275533 273.619065,203.275533 C272.691719,203.275533 272.228046,203.275533 271.3007,202.811849 C268.982335,201.420799 268.054989,198.638698 269.446008,196.320281 Z M215.659936,22.4389903 C213.341571,21.0479399 212.877898,18.2658393 214.268917,16.4111055 C215.659936,14.0926883 218.441974,13.1653214 220.76034,14.5563717 C236.525223,22.9026737 252.290106,35.4221266 262.027239,47.0142126 C263.881932,48.8689465 263.418258,51.6510472 261.563566,53.505781 C260.63622,53.9694645 259.245201,54.4331476 258.317855,54.4331476 C256.926836,54.4331476 255.535817,53.9694645 254.608471,53.0420976 C245.33501,42.3773781 230.497473,30.3216088 215.659936,22.4389903 Z M208.70484,241.297575 C206.850148,241.297575 205.459129,240.370208 204.531783,239.442841 C203.604437,237.124424 204.06811,234.342323 206.386475,232.951273 C210.095859,230.632856 211.023206,230.169172 213.805244,227.850755 L215.659936,226.459705 C217.514628,225.068654 220.76034,225.532338 222.151359,227.387072 C223.542378,229.241805 223.078705,232.487589 221.224012,233.87864 L219.36932,235.26969 C216.587282,237.124424 215.196263,238.515474 211.023206,240.833891 C210.095859,241.297575 209.632187,241.297575 208.70484,241.297575 Z M192.939957,273.755416 C192.012611,270.973315 193.403631,268.654898 195.721996,266.800164 C200.822399,264.481747 206.386475,261.699646 212.414225,258.453862 C217.050955,256.135445 221.687686,252.889661 226.324416,249.643877 C230.0338,246.861776 234.206857,244.079675 237.452568,240.833891 C239.307261,238.979158 242.089299,239.442841 243.943991,241.297575 C245.798683,243.152308 245.33501,245.934409 243.480318,247.789143 C239.770934,251.034927 235.597877,254.280711 231.424819,257.526495 C226.788089,261.235963 222.151359,264.481747 217.050955,267.263847 C210.559533,270.973315 204.531783,273.755416 198.967707,276.073833 C198.040361,276.537516 197.576688,276.537516 197.113015,276.537516 C195.258322,276.537516 193.867303,275.61015 192.939957,273.755416 Z" id="turbine" fill="#1A8697" fill-rule="nonzero"></path>
    </g>
</svg>